<?xml version="1.0" standalone="no"?><!DOCTYPE svg PUBLIC "-//W3C//DTD SVG 1.1//EN" "http://www.w3.org/Graphics/SVG/1.1/DTD/svg11.dtd"><svg height="729" node-id="1" sillyvg="true" template-height="729" template-width="516" version="1.1" viewBox="0 0 516 729" width="516" xmlns="http://www.w3.org/2000/svg" xmlns:xlink="http://www.w3.org/1999/xlink"><defs node-id="436"><linearGradient gradientUnits="objectBoundingBox" id="SVGID_1_" node-id="14" spreadMethod="pad" x1="224.1816" x2="275.9281" y1="332.3941" y2="332.3941"><stop offset="0" stop-color="#7f5a69"></stop><stop offset="0.1395" stop-color="#835f6d"></stop><stop offset="0.2969" stop-color="#8d6c7a"></stop><stop offset="0.463" stop-color="#9f838e"></stop><stop offset="0.6351" stop-color="#b7a2ab"></stop><stop offset="0.8119" stop-color="#d7cbd0"></stop><stop offset="0.9902" stop-color="#fdfcfc"></stop><stop offset="1" stop-color="#ffffff"></stop></linearGradient><linearGradient gradientUnits="objectBoundingBox" id="SVGID_2_" node-id="25" spreadMethod="pad" x1="227.3251" x2="277.0257" y1="388.7095" y2="388.7095"><stop offset="0" stop-color="#7f5a69"></stop><stop offset="0.1395" stop-color="#835f6d"></stop><stop offset="0.2969" stop-color="#8d6c7a"></stop><stop offset="0.463" stop-color="#9f838e"></stop><stop offset="0.6351" stop-color="#b7a2ab"></stop><stop offset="0.8119" stop-color="#d7cbd0"></stop><stop offset="0.9902" stop-color="#fdfcfc"></stop><stop offset="1" stop-color="#ffffff"></stop></linearGradient><linearGradient gradientUnits="objectBoundingBox" id="SVGID_3_" node-id="36" spreadMethod="pad" x1="281.7646" x2="305.5516" y1="346.6691" y2="346.6691"><stop offset="0" stop-color="#7f5a69"></stop><stop offset="0.1395" stop-color="#835f6d"></stop><stop offset="0.2969" stop-color="#8d6c7a"></stop><stop offset="0.463" stop-color="#9f838e"></stop><stop offset="0.6351" stop-color="#b7a2ab"></stop><stop offset="0.8119" stop-color="#d7cbd0"></stop><stop offset="0.9902" stop-color="#fdfcfc"></stop><stop offset="1" stop-color="#ffffff"></stop></linearGradient><linearGradient gradientUnits="objectBoundingBox" id="SVGID_4_" node-id="48" spreadMethod="pad" x1="254.6767" x2="284.4673" y1="342.3082" y2="342.3082"><stop offset="0" stop-color="#7f5a69"></stop><stop offset="0.1395" stop-color="#835f6d"></stop><stop offset="0.2969" stop-color="#8d6c7a"></stop><stop offset="0.463" stop-color="#9f838e"></stop><stop offset="0.6351" stop-color="#b7a2ab"></stop><stop offset="0.8119" stop-color="#d7cbd0"></stop><stop offset="0.9902" stop-color="#fdfcfc"></stop><stop offset="1" stop-color="#ffffff"></stop></linearGradient><linearGradient gradientUnits="objectBoundingBox" id="SVGID_5_" node-id="59" spreadMethod="pad" x1="241.5986" x2="254.2336" y1="363.1649" y2="363.1649"><stop offset="0" stop-color="#7f5a69"></stop><stop offset="0.1395" stop-color="#835f6d"></stop><stop offset="0.2969" stop-color="#8d6c7a"></stop><stop offset="0.463" stop-color="#9f838e"></stop><stop offset="0.6351" stop-color="#b7a2ab"></stop><stop offset="0.8119" stop-color="#d7cbd0"></stop><stop offset="0.9902" stop-color="#fdfcfc"></stop><stop offset="1" stop-color="#ffffff"></stop></linearGradient><linearGradient gradientUnits="objectBoundingBox" id="SVGID_6_" node-id="70" spreadMethod="pad" x1="272.1885" x2="286.5198" y1="364.8005" y2="364.8005"><stop offset="0" stop-color="#7f5a69"></stop><stop offset="0.1395" stop-color="#835f6d"></stop><stop offset="0.2969" stop-color="#8d6c7a"></stop><stop offset="0.463" stop-color="#9f838e"></stop><stop offset="0.6351" stop-color="#b7a2ab"></stop><stop offset="0.8119" stop-color="#d7cbd0"></stop><stop offset="0.9902" stop-color="#fdfcfc"></stop><stop offset="1" stop-color="#ffffff"></stop></linearGradient><linearGradient gradientUnits="objectBoundingBox" id="SVGID_7_" node-id="82" spreadMethod="pad" x1="246.4344" x2="264.7951" y1="348.2361" y2="348.2361"><stop offset="0" stop-color="#7f5a69"></stop><stop offset="0.1395" stop-color="#835f6d"></stop><stop offset="0.2969" stop-color="#8d6c7a"></stop><stop offset="0.463" stop-color="#9f838e"></stop><stop offset="0.6351" stop-color="#b7a2ab"></stop><stop offset="0.8119" stop-color="#d7cbd0"></stop><stop offset="0.9902" stop-color="#fdfcfc"></stop><stop offset="1" stop-color="#ffffff"></stop></linearGradient><linearGradient gradientUnits="objectBoundingBox" id="SVGID_8_" node-id="93" spreadMethod="pad" x1="250.2758" x2="271.7501" y1="370.3272" y2="370.3272"><stop offset="0" stop-color="#7f5a69"></stop><stop offset="0.1395" stop-color="#835f6d"></stop><stop offset="0.2969" stop-color="#8d6c7a"></stop><stop offset="0.463" stop-color="#9f838e"></stop><stop offset="0.6351" stop-color="#b7a2ab"></stop><stop offset="0.8119" stop-color="#d7cbd0"></stop><stop offset="0.9902" stop-color="#fdfcfc"></stop><stop offset="1" stop-color="#ffffff"></stop></linearGradient><linearGradient gradientUnits="objectBoundingBox" id="SVGID_9_" node-id="104" spreadMethod="pad" x1="267.0997" x2="280.2376" y1="350.2137" y2="350.2137"><stop offset="0" stop-color="#7f5a69"></stop><stop offset="0.1395" stop-color="#835f6d"></stop><stop offset="0.2969" stop-color="#8d6c7a"></stop><stop offset="0.463" stop-color="#9f838e"></stop><stop offset="0.6351" stop-color="#b7a2ab"></stop><stop offset="0.8119" stop-color="#d7cbd0"></stop><stop offset="0.9902" stop-color="#fdfcfc"></stop><stop offset="1" stop-color="#ffffff"></stop></linearGradient><linearGradient gradientUnits="objectBoundingBox" id="SVGID_10_" node-id="116" spreadMethod="pad" x1="213.3979" x2="276.9111" y1="325.5316" y2="325.5316"><stop offset="0" stop-color="#7f5a69"></stop><stop offset="0.1395" stop-color="#835f6d"></stop><stop offset="0.2969" stop-color="#8d6c7a"></stop><stop offset="0.463" stop-color="#9f838e"></stop><stop offset="0.6351" stop-color="#b7a2ab"></stop><stop offset="0.8119" stop-color="#d7cbd0"></stop><stop offset="0.9902" stop-color="#fdfcfc"></stop><stop offset="1" stop-color="#ffffff"></stop></linearGradient><linearGradient gradientUnits="objectBoundingBox" id="SVGID_11_" node-id="127" spreadMethod="pad" x1="217.2564" x2="278.2579" y1="394.8655" y2="394.8655"><stop offset="0" stop-color="#7f5a69"></stop><stop offset="0.1395" stop-color="#835f6d"></stop><stop offset="0.2969" stop-color="#8d6c7a"></stop><stop offset="0.463" stop-color="#9f838e"></stop><stop offset="0.6351" stop-color="#b7a2ab"></stop><stop offset="0.8119" stop-color="#d7cbd0"></stop><stop offset="0.9902" stop-color="#fdfcfc"></stop><stop offset="1" stop-color="#ffffff"></stop></linearGradient><linearGradient gradientUnits="objectBoundingBox" id="SVGID_12_" node-id="138" spreadMethod="pad" x1="284.3892" x2="313.2708" y1="343.0486" y2="343.0486"><stop offset="0" stop-color="#7f5a69"></stop><stop offset="0.1395" stop-color="#835f6d"></stop><stop offset="0.2969" stop-color="#8d6c7a"></stop><stop offset="0.463" stop-color="#9f838e"></stop><stop offset="0.6351" stop-color="#b7a2ab"></stop><stop offset="0.8119" stop-color="#d7cbd0"></stop><stop offset="0.9902" stop-color="#fdfcfc"></stop><stop offset="1" stop-color="#ffffff"></stop></linearGradient><linearGradient gradientUnits="objectBoundingBox" id="SVGID_13_" node-id="157" spreadMethod="pad" x1="116.2197" x2="211.9133" y1="309.3811" y2="309.3811"><stop offset="0" stop-color="#7f5a69"></stop><stop offset="0.1395" stop-color="#835f6d"></stop><stop offset="0.2969" stop-color="#8d6c7a"></stop><stop offset="0.463" stop-color="#9f838e"></stop><stop offset="0.6351" stop-color="#b7a2ab"></stop><stop offset="0.8119" stop-color="#d7cbd0"></stop><stop offset="0.9902" stop-color="#fdfcfc"></stop><stop offset="1" stop-color="#ffffff"></stop></linearGradient><linearGradient gradientUnits="objectBoundingBox" id="SVGID_14_" node-id="168" spreadMethod="pad" x1="209.7007" x2="397.6821" y1="467.5074" y2="467.5074"><stop offset="0" stop-color="#7f5a69"></stop><stop offset="0.1395" stop-color="#835f6d"></stop><stop offset="0.2969" stop-color="#8d6c7a"></stop><stop offset="0.463" stop-color="#9f838e"></stop><stop offset="0.6351" stop-color="#b7a2ab"></stop><stop offset="0.8119" stop-color="#d7cbd0"></stop><stop offset="0.9902" stop-color="#fdfcfc"></stop><stop offset="1" stop-color="#ffffff"></stop></linearGradient><linearGradient gradientUnits="objectBoundingBox" id="SVGID_15_" node-id="179" spreadMethod="pad" x1="238.1419" x2="410.2726" y1="245.5838" y2="245.5838"><stop offset="0" stop-color="#7f5a69"></stop><stop offset="0.1395" stop-color="#835f6d"></stop><stop offset="0.2969" stop-color="#8d6c7a"></stop><stop offset="0.463" stop-color="#9f838e"></stop><stop offset="0.6351" stop-color="#b7a2ab"></stop><stop offset="0.8119" stop-color="#d7cbd0"></stop><stop offset="0.9902" stop-color="#fdfcfc"></stop><stop offset="1" stop-color="#ffffff"></stop></linearGradient><linearGradient gradientUnits="objectBoundingBox" id="SVGID_16_" node-id="198" spreadMethod="pad" x1="183.9901" x2="226.7925" y1="341.3026" y2="341.3026"><stop offset="0" stop-color="#7f5a69"></stop><stop offset="0.1395" stop-color="#835f6d"></stop><stop offset="0.2969" stop-color="#8d6c7a"></stop><stop offset="0.463" stop-color="#9f838e"></stop><stop offset="0.6351" stop-color="#b7a2ab"></stop><stop offset="0.8119" stop-color="#d7cbd0"></stop><stop offset="0.9902" stop-color="#fdfcfc"></stop><stop offset="1" stop-color="#ffffff"></stop></linearGradient><linearGradient gradientUnits="objectBoundingBox" id="SVGID_17_" node-id="209" spreadMethod="pad" x1="243.576" x2="339.3425" y1="414.1559" y2="414.1559"><stop offset="0" stop-color="#7f5a69"></stop><stop offset="0.1395" stop-color="#835f6d"></stop><stop offset="0.2969" stop-color="#8d6c7a"></stop><stop offset="0.463" stop-color="#9f838e"></stop><stop offset="0.6351" stop-color="#b7a2ab"></stop><stop offset="0.8119" stop-color="#d7cbd0"></stop><stop offset="0.9902" stop-color="#fdfcfc"></stop><stop offset="1" stop-color="#ffffff"></stop></linearGradient><linearGradient gradientUnits="objectBoundingBox" id="SVGID_18_" node-id="220" spreadMethod="pad" x1="239.2626" x2="336.6305" y1="295.9402" y2="295.9402"><stop offset="0" stop-color="#7f5a69"></stop><stop offset="0.1395" stop-color="#835f6d"></stop><stop offset="0.2969" stop-color="#8d6c7a"></stop><stop offset="0.463" stop-color="#9f838e"></stop><stop offset="0.6351" stop-color="#b7a2ab"></stop><stop offset="0.8119" stop-color="#d7cbd0"></stop><stop offset="0.9902" stop-color="#fdfcfc"></stop><stop offset="1" stop-color="#ffffff"></stop></linearGradient><linearGradient gradientUnits="objectBoundingBox" id="SVGID_19_" node-id="291" spreadMethod="pad" x1="190.6321" x2="382.459" y1="236.0806" y2="236.0806"><stop offset="0" stop-color="#7f5a69"></stop><stop offset="0.1395" stop-color="#835f6d"></stop><stop offset="0.2969" stop-color="#8d6c7a"></stop><stop offset="0.463" stop-color="#9f838e"></stop><stop offset="0.6351" stop-color="#b7a2ab"></stop><stop offset="0.8119" stop-color="#d7cbd0"></stop><stop offset="0.9902" stop-color="#fdfcfc"></stop><stop offset="1" stop-color="#ffffff"></stop></linearGradient><linearGradient gradientUnits="objectBoundingBox" id="SVGID_20_" node-id="302" spreadMethod="pad" x1="129.0209" x2="218.0549" y1="393.0609" y2="393.0609"><stop offset="0" stop-color="#7f5a69"></stop><stop offset="0.1395" stop-color="#835f6d"></stop><stop offset="0.2969" stop-color="#8d6c7a"></stop><stop offset="0.463" stop-color="#9f838e"></stop><stop offset="0.6351" stop-color="#b7a2ab"></stop><stop offset="0.8119" stop-color="#d7cbd0"></stop><stop offset="0.9902" stop-color="#fdfcfc"></stop><stop offset="1" stop-color="#ffffff"></stop></linearGradient><linearGradient gradientUnits="objectBoundingBox" id="SVGID_21_" node-id="313" spreadMethod="pad" x1="342.3446" x2="405.6191" y1="373.4111" y2="373.4111"><stop offset="0" stop-color="#7f5a69"></stop><stop offset="0.1395" stop-color="#835f6d"></stop><stop offset="0.2969" stop-color="#8d6c7a"></stop><stop offset="0.463" stop-color="#9f838e"></stop><stop offset="0.6351" stop-color="#b7a2ab"></stop><stop offset="0.8119" stop-color="#d7cbd0"></stop><stop offset="0.9902" stop-color="#fdfcfc"></stop><stop offset="1" stop-color="#ffffff"></stop></linearGradient><linearGradient gradientUnits="objectBoundingBox" id="SVGID_22_" node-id="325" spreadMethod="pad" x1="146.4044" x2="300.7037" y1="267.184" y2="267.184"><stop offset="0" stop-color="#7f5a69"></stop><stop offset="0.1395" stop-color="#835f6d"></stop><stop offset="0.2969" stop-color="#8d6c7a"></stop><stop offset="0.463" stop-color="#9f838e"></stop><stop offset="0.6351" stop-color="#b7a2ab"></stop><stop offset="0.8119" stop-color="#d7cbd0"></stop><stop offset="0.9902" stop-color="#fdfcfc"></stop><stop offset="1" stop-color="#ffffff"></stop></linearGradient><linearGradient gradientUnits="objectBoundingBox" id="SVGID_23_" node-id="336" spreadMethod="pad" x1="155.7789" x2="303.9724" y1="437.008" y2="437.008"><stop offset="0" stop-color="#7f5a69"></stop><stop offset="0.1395" stop-color="#835f6d"></stop><stop offset="0.2969" stop-color="#8d6c7a"></stop><stop offset="0.463" stop-color="#9f838e"></stop><stop offset="0.6351" stop-color="#b7a2ab"></stop><stop offset="0.8119" stop-color="#d7cbd0"></stop><stop offset="0.9902" stop-color="#fdfcfc"></stop><stop offset="1" stop-color="#ffffff"></stop></linearGradient><linearGradient gradientUnits="objectBoundingBox" id="SVGID_24_" node-id="347" spreadMethod="pad" x1="320.847" x2="389.0365" y1="309.7309" y2="309.7309"><stop offset="0" stop-color="#7f5a69"></stop><stop offset="0.1395" stop-color="#835f6d"></stop><stop offset="0.2969" stop-color="#8d6c7a"></stop><stop offset="0.463" stop-color="#9f838e"></stop><stop offset="0.6351" stop-color="#b7a2ab"></stop><stop offset="0.8119" stop-color="#d7cbd0"></stop><stop offset="0.9902" stop-color="#fdfcfc"></stop><stop offset="1" stop-color="#ffffff"></stop></linearGradient><linearGradient gradientUnits="objectBoundingBox" id="SVGID_25_" node-id="380" spreadMethod="pad" x1="77.6191" x2="241.542" y1="270.2181" y2="270.2181"><stop offset="0" stop-color="#7f5a69"></stop><stop offset="0.1395" stop-color="#835f6d"></stop><stop offset="0.2969" stop-color="#8d6c7a"></stop><stop offset="0.463" stop-color="#9f838e"></stop><stop offset="0.6351" stop-color="#b7a2ab"></stop><stop offset="0.8119" stop-color="#d7cbd0"></stop><stop offset="0.9902" stop-color="#fdfcfc"></stop><stop offset="1" stop-color="#ffffff"></stop></linearGradient><linearGradient gradientUnits="objectBoundingBox" id="SVGID_26_" node-id="391" spreadMethod="pad" x1="153.4288" x2="398.7122" y1="514.624" y2="514.624"><stop offset="0" stop-color="#7f5a69"></stop><stop offset="0.1395" stop-color="#835f6d"></stop><stop offset="0.2969" stop-color="#8d6c7a"></stop><stop offset="0.463" stop-color="#9f838e"></stop><stop offset="0.6351" stop-color="#b7a2ab"></stop><stop offset="0.8119" stop-color="#d7cbd0"></stop><stop offset="0.9902" stop-color="#fdfcfc"></stop><stop offset="1" stop-color="#ffffff"></stop></linearGradient><linearGradient gradientUnits="objectBoundingBox" id="SVGID_27_" node-id="402" spreadMethod="pad" x1="276.7323" x2="457.0719" y1="242.3699" y2="242.3699"><stop offset="0" stop-color="#7f5a69"></stop><stop offset="0.1395" stop-color="#835f6d"></stop><stop offset="0.2969" stop-color="#8d6c7a"></stop><stop offset="0.463" stop-color="#9f838e"></stop><stop offset="0.6351" stop-color="#b7a2ab"></stop><stop offset="0.8119" stop-color="#d7cbd0"></stop><stop offset="0.9902" stop-color="#fdfcfc"></stop><stop offset="1" stop-color="#ffffff"></stop></linearGradient></defs><g node-id="1402"><g node-id="1426"><path d="M 232.10 310.80 L 236.80 307.60 L 241.80 304.90 L 248.90 302.10 L 252.70 301.10 L 258.40 300.10 L 264.20 299.70 L 270.00 300.00 L 275.70 300.80 L 281.30 302.20 L 286.80 304.20 L 291.90 306.80 L 296.90 309.90 L 300.00 312.20 L 305.50 317.50 L 308.00 320.50 L 312.10 326.80 L 308.40 322.50 L 304.40 318.60 L 300.10 315.00 L 295.60 311.90 L 290.80 309.20 L 285.80 306.90 L 280.60 305.00 L 275.20 303.70 L 269.80 302.80 L 264.30 302.50 L 258.70 302.60 L 253.30 303.30 L 247.70 304.50 L 242.30 306.20 L 237.10 308.30 L 232.10 310.80 Z" fill="#eef0f3" fill-rule="nonzero" group-id="1,25" node-id="931" stroke="none" target-height="27.099976" target-width="80" target-x="232.1" target-y="299.7"></path></g><g node-id="1427"><path d="M 243.00 412.40 L 238.20 410.70 L 233.60 408.50 L 229.20 405.90 L 225.10 402.80 L 221.30 399.30 L 217.80 395.50 L 214.70 391.40 L 212.00 386.90 L 209.80 382.20 L 208.00 377.40 L 206.60 372.40 L 205.80 367.30 L 205.50 362.20 L 205.60 357.10 L 206.30 352.00 L 207.50 347.10 L 207.10 353.80 L 207.30 360.50 L 208.10 367.00 L 210.60 376.50 L 212.40 381.10 L 214.60 385.50 L 217.10 389.70 L 220.00 393.70 L 226.60 401.00 L 230.30 404.30 L 234.40 407.30 L 243.00 412.40 Z" fill="#eef0f3" fill-rule="nonzero" group-id="1,26" node-id="936" stroke="none" target-height="65.29999" target-width="37.5" target-x="205.5" target-y="347.1"></path></g><path d="M 317.10 336.30 L 319.20 340.80 L 320.90 345.60 L 322.00 350.50 L 322.70 355.60 L 322.90 360.70 L 322.60 365.80 L 321.80 370.80 L 320.60 375.80 L 318.90 380.60 L 316.80 385.30 L 314.20 389.70 L 311.30 393.80 L 308.00 397.60 L 304.30 401.10 L 300.30 404.20 L 296.00 406.80 L 301.00 402.40 L 305.40 397.60 L 309.40 392.40 L 314.30 384.00 L 316.20 379.60 L 317.80 375.00 L 319.90 365.50 L 320.50 355.80 L 319.90 349.20 L 318.80 342.70 L 317.10 336.30 Z" fill="#eef0f3" fill-rule="nonzero" group-id="1,27" node-id="941" stroke="none" target-height="70.5" target-width="26.899994" target-x="296" target-y="336.3"></path></g><g node-id="1403"><g node-id="1429"><path d="M 225.60 347.20 L 226.50 343.40 L 227.90 339.60 L 229.80 336.10 L 232.00 332.70 L 234.60 329.60 L 237.50 326.80 L 240.70 324.30 L 244.20 322.20 L 247.90 320.50 L 251.70 319.10 L 259.70 317.70 L 263.70 317.70 L 267.70 318.10 L 271.60 319.00 L 275.40 320.30 L 270.20 319.60 L 265.00 319.50 L 260.00 320.00 L 252.60 321.80 L 245.70 324.80 L 241.40 327.50 L 237.40 330.60 L 233.80 334.20 L 229.20 340.30 L 225.60 347.20 Z" fill="url(#SVGID_1_)" fill-rule="nonzero" group-id="2,28" node-id="949" stroke="none" target-height="29.5" target-width="49.799988" target-x="225.6" target-y="317.7"></path></g><g node-id="1430"><path d="M 276.60 396.70 L 269.90 399.00 L 262.80 399.90 L 255.60 399.30 L 248.60 397.30 L 245.30 395.80 L 242.20 393.90 L 236.60 389.40 L 232.00 383.90 L 230.20 380.80 L 228.80 377.50 L 231.70 381.20 L 238.20 387.60 L 243.80 391.50 L 249.90 394.50 L 256.30 396.50 L 263.00 397.50 L 267.30 397.70 L 271.90 397.40 L 276.60 396.70 Z" fill="url(#SVGID_2_)" fill-rule="nonzero" group-id="2,29" node-id="954" stroke="none" target-height="22.399994" target-width="47.800003" target-x="228.8" target-y="377.5"></path></g><path d="M 282.50 323.10 L 288.80 326.20 L 294.30 330.70 L 298.90 336.20 L 302.30 342.50 L 304.40 349.30 L 305.20 356.40 L 304.60 363.50 L 302.40 370.10 L 302.90 365.50 L 302.90 356.50 L 301.70 349.90 L 299.60 343.60 L 296.60 337.70 L 292.70 332.30 L 286.20 325.90 L 282.50 323.10 Z" fill="url(#SVGID_3_)" fill-rule="nonzero" group-id="2,30" node-id="959" stroke="none" target-height="47" target-width="22.700012" target-x="282.5" target-y="323.1"></path></g><g node-id="1404"><g node-id="1432"><path d="M 255.30 338.80 L 259.00 336.80 L 263.20 335.70 L 267.60 335.70 L 271.80 336.80 L 274.50 338.00 L 276.90 339.60 L 279.10 341.60 L 280.90 343.90 L 282.20 346.40 L 283.10 349.10 L 280.40 346.00 L 277.50 343.30 L 274.20 341.10 L 270.80 339.60 L 267.10 338.60 L 263.30 338.10 L 259.40 338.10 L 255.30 338.80 Z" fill="url(#SVGID_4_)" fill-rule="nonzero" group-id="3,31" node-id="967" stroke="none" target-height="13.399994" target-width="27.800003" target-x="255.3" target-y="335.7"></path></g><g node-id="1433"><path d="M 253.50 375.90 L 250.00 374.30 L 247.00 371.90 L 244.00 367.70 L 242.90 365.30 L 242.20 362.80 L 241.90 357.60 L 242.40 355.00 L 244.40 350.40 L 244.20 357.60 L 245.60 364.30 L 247.00 367.40 L 248.70 370.40 L 253.50 375.90 Z" fill="url(#SVGID_5_)" fill-rule="nonzero" group-id="3,32" node-id="972" stroke="none" target-height="25.5" target-width="11.600006" target-x="241.9" target-y="350.4"></path></g><path d="M 284.40 352.80 L 285.70 356.30 L 286.10 360.10 L 285.30 365.20 L 284.30 367.60 L 281.50 371.90 L 279.60 373.70 L 277.50 375.20 L 275.20 376.30 L 272.80 377.00 L 277.90 372.10 L 281.60 366.40 L 282.90 363.30 L 283.70 360.00 L 284.40 352.80 Z" fill="url(#SVGID_6_)" fill-rule="nonzero" group-id="3,33" node-id="977" stroke="none" target-height="24.200012" target-width="13.300018" target-x="272.8" target-y="352.8"></path></g><g node-id="1405"><g node-id="1435"><path d="M 247.90 355.60 L 247.70 353.50 L 247.90 351.40 L 248.60 349.30 L 250.20 346.40 L 252.50 344.00 L 256.30 341.80 L 258.40 341.10 L 261.60 340.90 L 264.70 341.60 L 259.10 343.40 L 254.40 346.30 L 250.70 350.40 L 247.90 355.60 Z" fill="url(#SVGID_7_)" fill-rule="nonzero" group-id="4,34" node-id="985" stroke="none" target-height="14.700012" target-width="17.000015" target-x="247.7" target-y="340.9"></path></g><g node-id="1436"><path d="M 271.00 370.30 L 268.00 372.60 L 266.10 373.30 L 264.20 373.70 L 260.30 373.60 L 256.60 372.40 L 254.90 371.30 L 253.40 370.00 L 251.40 366.80 L 256.10 369.30 L 260.80 370.70 L 265.70 371.00 L 271.00 370.30 Z" fill="url(#SVGID_8_)" fill-rule="nonzero" group-id="4,35" node-id="990" stroke="none" target-height="6.9000244" target-width="19.600006" target-x="251.4" target-y="366.8"></path></g><path d="M 267.50 342.10 L 271.20 342.70 L 273.00 343.50 L 276.10 345.90 L 277.30 347.40 L 278.70 350.00 L 279.40 352.80 L 279.50 354.70 L 278.70 358.40 L 277.10 353.40 L 274.80 349.10 L 271.60 345.40 L 267.50 342.10 Z" fill="url(#SVGID_9_)" fill-rule="nonzero" group-id="4,36" node-id="995" stroke="none" target-height="16.299988" target-width="12" target-x="267.5" target-y="342.1"></path></g><g node-id="1406"><g node-id="1438"><path d="M 214.80 343.70 L 216.10 339.00 L 217.90 334.40 L 220.20 330.00 L 223.00 325.90 L 226.20 322.10 L 229.80 318.70 L 233.80 315.70 L 238.10 313.10 L 242.60 311.00 L 247.30 309.30 L 252.20 308.20 L 257.10 307.60 L 262.10 307.50 L 267.00 308.00 L 271.80 309.00 L 276.40 310.60 L 266.80 309.50 L 257.30 309.90 L 248.10 312.00 L 243.70 313.70 L 239.50 315.80 L 235.50 318.20 L 231.70 321.00 L 228.10 324.10 L 224.80 327.50 L 221.80 331.10 L 219.20 335.10 L 214.80 343.70 Z" fill="url(#SVGID_10_)" fill-rule="nonzero" group-id="5,37" node-id="1003" stroke="none" target-height="36.200012" target-width="61.59999" target-x="214.8" target-y="307.5"></path></g><g node-id="1439"><path d="M 277.80 404.90 L 273.70 406.50 L 269.50 407.60 L 265.10 408.30 L 260.70 408.60 L 251.90 407.80 L 243.30 405.30 L 239.30 403.40 L 235.40 401.20 L 231.80 398.60 L 228.40 395.70 L 225.30 392.50 L 222.70 388.90 L 220.40 385.20 L 218.60 381.20 L 222.10 385.90 L 225.90 390.10 L 230.00 393.90 L 236.90 398.80 L 240.60 400.80 L 244.40 402.50 L 252.40 405.00 L 260.70 406.20 L 266.40 406.30 L 272.10 405.90 L 277.80 404.90 Z" fill="url(#SVGID_11_)" fill-rule="nonzero" group-id="5,38" node-id="1008" stroke="none" target-height="27.399994" target-width="59.19998" target-x="218.6" target-y="381.2"></path></g><path d="M 285.10 314.00 L 289.10 315.80 L 292.80 318.00 L 296.30 320.60 L 299.50 323.60 L 305.10 330.40 L 309.30 338.10 L 312.00 346.50 L 312.70 350.90 L 313.00 355.20 L 312.90 359.60 L 312.30 363.90 L 311.30 368.10 L 309.80 372.20 L 310.80 363.80 L 310.60 355.40 L 309.20 347.20 L 306.60 339.30 L 302.80 331.90 L 297.90 325.20 L 294.00 321.10 L 289.70 317.40 L 285.10 314.00 Z" fill="url(#SVGID_12_)" fill-rule="nonzero" group-id="5,39" node-id="1013" stroke="none" target-height="58.200012" target-width="27.899994" target-x="285.1" target-y="314"></path></g><g node-id="1407"><g node-id="1441"><path d="M 168.00 394.40 L 165.40 388.10 L 163.20 381.70 L 161.40 375.10 L 160.10 368.40 L 159.30 361.60 L 159.00 354.70 L 159.10 347.80 L 159.70 341.00 L 160.80 334.20 L 162.40 327.40 L 164.40 320.90 L 166.80 314.50 L 171.20 305.20 L 176.60 296.30 L 180.70 290.70 L 185.10 285.50 L 189.90 280.50 L 195.00 275.90 L 200.40 271.70 L 206.10 267.80 L 212.00 264.40 L 218.20 261.40 L 224.50 258.80 L 218.40 261.80 L 212.60 265.20 L 207.00 269.00 L 201.60 273.00 L 196.50 277.40 L 191.60 282.10 L 187.10 287.10 L 182.90 292.30 L 179.00 297.80 L 173.80 306.50 L 169.60 315.60 L 167.20 321.90 L 165.20 328.30 L 163.60 334.80 L 162.40 341.40 L 161.70 348.10 L 161.40 354.80 L 161.50 361.50 L 162.00 368.10 L 162.90 374.80 L 165.90 387.90 L 168.00 394.40 Z" fill="#eef0f3" fill-rule="nonzero" group-id="6,40" node-id="1021" stroke="none" target-height="135.6" target-width="65.5" target-x="159" target-y="258.8"></path></g><g node-id="1442"><path d="M 351.50 410.80 L 344.80 420.90 L 341.00 425.70 L 332.40 434.40 L 327.70 438.40 L 317.60 445.40 L 312.30 448.40 L 301.10 453.50 L 295.30 455.50 L 283.40 458.40 L 277.30 459.30 L 271.10 459.80 L 258.90 459.80 L 246.80 458.20 L 240.80 456.90 L 234.90 455.10 L 223.70 450.60 L 229.40 452.50 L 241.10 455.40 L 247.00 456.40 L 259.00 457.40 L 265.00 457.40 L 276.90 456.50 L 288.60 454.20 L 294.40 452.60 L 305.60 448.50 L 311.00 445.90 L 321.40 439.90 L 326.30 436.50 L 335.60 428.90 L 339.90 424.70 L 347.80 415.60 L 351.50 410.80 Z" fill="#eef0f3" fill-rule="nonzero" group-id="6,41" node-id="1026" stroke="none" target-height="49" target-width="127.8" target-x="223.7" target-y="410.8"></path></g><path d="M 243.00 253.10 L 254.80 250.90 L 260.80 250.30 L 272.90 250.30 L 278.90 250.90 L 290.80 253.10 L 296.60 254.80 L 307.90 259.10 L 313.40 261.80 L 318.70 264.80 L 328.60 271.70 L 337.60 279.80 L 341.80 284.20 L 345.70 288.90 L 352.40 298.90 L 355.30 304.20 L 360.00 315.20 L 357.30 309.90 L 351.20 299.70 L 347.70 294.80 L 340.00 285.80 L 335.80 281.60 L 326.80 274.00 L 322.00 270.50 L 311.90 264.50 L 306.60 261.90 L 295.70 257.50 L 284.30 254.30 L 278.50 253.20 L 266.80 251.90 L 260.90 251.80 L 249.00 252.30 L 243.00 253.10 Z" fill="#eef0f3" fill-rule="nonzero" group-id="6,42" node-id="1031" stroke="none" target-height="64.90001" target-width="117" target-x="243" target-y="250.3"></path></g><g node-id="1408"><g node-id="1444"><path d="M 129.10 408.20 L 125.40 399.00 L 122.30 389.50 L 119.80 379.90 L 118.40 372.60 L 117.40 365.20 L 116.50 350.20 L 117.00 337.20 L 118.10 327.90 L 119.40 320.50 L 121.70 310.80 L 124.60 301.20 L 128.10 291.90 L 134.60 278.40 L 142.30 265.60 L 151.30 253.70 L 156.30 248.00 L 161.50 242.60 L 168.90 235.90 L 176.70 229.70 L 184.90 224.00 L 197.90 216.70 L 211.50 210.70 L 202.60 215.00 L 194.00 219.90 L 185.70 225.20 L 179.70 229.50 L 174.00 234.10 L 163.20 244.10 L 156.60 251.40 L 150.40 259.00 L 144.70 267.00 L 137.20 279.60 L 131.00 292.90 L 126.00 306.70 L 122.30 320.90 L 120.90 328.10 L 120.00 335.40 L 119.10 350.10 L 119.50 364.90 L 121.40 379.60 L 123.40 389.30 L 126.00 398.80 L 129.10 408.20 Z" fill="url(#SVGID_13_)" fill-rule="nonzero" group-id="7,43" node-id="1039" stroke="none" target-height="197.50002" target-width="95" target-x="116.5" target-y="210.7"></path></g><g node-id="1445"><path d="M 396.40 432.00 L 391.60 439.50 L 386.40 446.60 L 380.80 453.50 L 374.70 459.90 L 368.30 466.00 L 361.40 471.70 L 354.20 477.00 L 346.80 481.80 L 339.00 486.20 L 331.00 490.10 L 322.70 493.50 L 314.30 496.40 L 305.70 498.80 L 297.00 500.70 L 288.20 502.00 L 279.30 502.80 L 270.40 503.00 L 261.50 502.70 L 252.60 501.90 L 243.90 500.50 L 235.20 498.60 L 222.50 494.70 L 210.20 489.70 L 218.50 492.60 L 227.00 495.10 L 235.50 497.10 L 244.20 498.60 L 252.90 499.70 L 261.60 500.30 L 270.40 500.40 L 279.10 500.00 L 287.80 499.10 L 296.40 497.70 L 305.00 495.90 L 313.40 493.50 L 321.70 490.70 L 329.80 487.40 L 337.70 483.60 L 345.40 479.40 L 352.80 474.80 L 360.00 469.80 L 366.90 464.40 L 373.40 458.60 L 379.70 452.40 L 385.70 445.90 L 391.20 439.10 L 396.40 432.00 Z" fill="url(#SVGID_14_)" fill-rule="nonzero" group-id="7,44" node-id="1044" stroke="none" target-height="71" target-width="186.2" target-x="210.2" target-y="432"></path></g><path d="M 238.40 202.30 L 251.30 199.80 L 264.30 198.60 L 273.10 198.40 L 281.90 198.80 L 290.60 199.70 L 299.30 201.10 L 307.80 203.00 L 316.30 205.50 L 324.60 208.40 L 332.70 211.80 L 340.60 215.70 L 348.30 220.00 L 355.60 224.80 L 362.70 230.10 L 369.50 235.80 L 375.90 241.80 L 381.90 248.20 L 387.50 255.00 L 392.70 262.00 L 397.50 269.40 L 401.80 277.00 L 405.60 284.90 L 408.90 293.00 L 405.10 285.10 L 400.90 277.60 L 396.30 270.20 L 391.30 263.10 L 385.90 256.30 L 380.20 249.80 L 374.10 243.60 L 367.70 237.80 L 361.00 232.40 L 354.00 227.30 L 346.70 222.70 L 339.20 218.40 L 331.50 214.60 L 323.60 211.20 L 315.50 208.20 L 307.20 205.70 L 298.80 203.70 L 290.30 202.10 L 281.70 200.90 L 273.10 200.20 L 264.40 200.00 L 255.70 200.30 L 247.00 201.00 L 238.40 202.30 Z" fill="url(#SVGID_15_)" fill-rule="nonzero" group-id="7,45" node-id="1049" stroke="none" target-height="94.600006" target-width="170.5" target-x="238.4" target-y="198.4"></path></g><g node-id="1409"><g node-id="1447"><path d="M 181.30 276.90 L 186.10 271.50 L 191.30 266.40 L 196.80 261.60 L 202.70 257.20 L 208.80 253.30 L 215.20 249.80 L 221.80 246.70 L 228.70 244.10 L 235.70 242.00 L 242.90 240.40 L 250.10 239.20 L 257.40 238.50 L 268.30 238.40 L 279.30 239.40 L 286.50 240.70 L 293.60 242.50 L 300.60 244.70 L 307.40 247.40 L 314.00 250.60 L 320.30 254.20 L 329.20 260.50 L 337.50 267.60 L 331.80 263.20 L 325.80 259.10 L 319.60 255.50 L 313.20 252.20 L 306.60 249.40 L 299.90 246.90 L 293.00 244.90 L 286.10 243.30 L 279.00 242.20 L 268.40 241.30 L 257.70 241.50 L 250.60 242.10 L 243.60 243.20 L 236.60 244.70 L 229.70 246.70 L 223.00 249.10 L 216.40 251.90 L 209.90 255.10 L 203.70 258.70 L 197.70 262.80 L 192.00 267.10 L 186.50 271.80 L 181.30 276.90 Z" fill="#eef0f3" fill-rule="nonzero" group-id="8,46" node-id="1057" stroke="none" target-height="38.5" target-width="156.2" target-x="181.3" target-y="238.4"></path></g><g node-id="1448"><path d="M 251.20 460.00 L 244.80 459.40 L 238.40 458.30 L 232.10 456.80 L 225.80 455.00 L 219.70 452.70 L 213.80 450.00 L 208.00 447.00 L 202.40 443.60 L 197.00 439.90 L 191.80 435.90 L 186.90 431.50 L 182.30 426.90 L 174.00 416.90 L 170.30 411.50 L 166.90 405.90 L 163.90 400.10 L 161.30 394.10 L 159.00 388.00 L 157.20 381.80 L 155.70 375.40 L 154.30 365.80 L 153.70 356.10 L 154.50 362.50 L 157.10 375.10 L 158.90 381.20 L 163.50 393.10 L 169.30 404.40 L 172.70 409.80 L 180.30 420.00 L 184.60 424.70 L 189.10 429.20 L 198.80 437.40 L 209.30 444.60 L 214.90 447.70 L 226.50 453.00 L 232.50 455.20 L 244.80 458.80 L 251.20 460.00 Z" fill="#eef0f3" fill-rule="nonzero" group-id="8,47" node-id="1062" stroke="none" target-height="103.899994" target-width="97.5" target-x="153.7" target-y="356.1"></path></g><path d="M 351.50 282.80 L 357.30 290.40 L 362.40 298.50 L 365.40 304.20 L 368.00 310.10 L 370.20 316.10 L 372.10 322.30 L 373.60 328.50 L 374.70 334.90 L 375.80 347.70 L 375.80 354.20 L 375.40 360.60 L 374.60 367.00 L 373.40 373.40 L 371.80 379.70 L 367.60 391.80 L 361.90 403.30 L 358.60 408.80 L 352.90 416.60 L 346.60 423.70 L 350.50 418.60 L 357.40 408.00 L 360.40 402.40 L 365.50 390.90 L 367.60 384.90 L 370.70 372.80 L 371.80 366.60 L 372.90 354.10 L 373.00 347.80 L 372.00 335.30 L 371.10 329.10 L 368.10 316.90 L 365.60 309.60 L 362.70 302.60 L 359.40 295.80 L 355.70 289.20 L 351.50 282.80 Z" fill="#eef0f3" fill-rule="nonzero" group-id="8,48" node-id="1067" stroke="none" target-height="140.90002" target-width="29.199982" target-x="346.6" target-y="282.8"></path></g><g node-id="1410"><g node-id="1450"><path d="M 195.90 395.90 L 190.90 386.70 L 188.80 381.80 L 185.80 371.60 L 184.90 366.40 L 184.30 361.10 L 184.20 350.50 L 185.70 339.90 L 186.90 334.70 L 189.40 327.10 L 192.70 319.80 L 196.70 312.90 L 201.40 306.40 L 208.70 298.70 L 212.70 295.20 L 216.90 292.00 L 226.00 286.70 L 219.60 291.30 L 213.60 296.30 L 206.40 303.80 L 203.20 307.90 L 200.20 312.20 L 195.20 321.10 L 192.10 328.20 L 189.70 335.50 L 187.50 345.60 L 186.90 350.70 L 186.70 355.80 L 187.10 366.10 L 188.90 376.30 L 190.30 381.30 L 192.80 388.70 L 195.90 395.90 Z" fill="url(#SVGID_16_)" fill-rule="nonzero" group-id="9,49" node-id="1075" stroke="none" target-height="109.19998" target-width="41.800003" target-x="184.2" target-y="286.7"></path></g><g node-id="1451"><path d="M 338.00 390.80 L 333.90 399.30 L 331.50 403.30 L 325.80 410.90 L 322.60 414.40 L 319.20 417.70 L 311.80 423.60 L 305.70 427.40 L 299.40 430.70 L 295.00 432.50 L 285.90 435.40 L 281.20 436.40 L 271.80 437.40 L 267.00 437.50 L 257.60 436.80 L 253.00 436.00 L 243.90 433.50 L 250.90 434.70 L 257.80 435.40 L 264.70 435.50 L 271.60 435.10 L 278.40 434.20 L 285.20 432.60 L 291.80 430.60 L 298.10 428.00 L 304.30 424.90 L 310.10 421.30 L 315.70 417.20 L 320.90 412.70 L 325.80 407.80 L 330.30 402.40 L 334.30 396.80 L 338.00 390.80 Z" fill="url(#SVGID_17_)" fill-rule="nonzero" group-id="9,50" node-id="1080" stroke="none" target-height="46.700012" target-width="94.100006" target-x="243.9" target-y="390.8"></path></g><path d="M 239.70 280.50 L 248.50 277.50 L 253.00 276.50 L 262.30 275.30 L 267.00 275.10 L 274.00 275.40 L 281.00 276.30 L 290.10 278.50 L 294.60 280.10 L 301.00 282.90 L 307.30 286.30 L 315.00 291.70 L 318.60 294.70 L 322.00 297.90 L 328.10 305.00 L 330.80 308.80 L 335.40 316.90 L 331.40 311.20 L 327.00 306.00 L 322.20 301.10 L 317.10 296.50 L 311.70 292.40 L 305.90 288.80 L 299.90 285.60 L 293.60 283.00 L 287.20 280.80 L 280.60 279.20 L 273.90 278.10 L 267.10 277.50 L 260.20 277.40 L 253.30 277.90 L 246.50 278.90 L 239.70 280.50 Z" fill="url(#SVGID_18_)" fill-rule="nonzero" group-id="9,51" node-id="1085" stroke="none" target-height="41.799988" target-width="95.7" target-x="239.7" target-y="275.1"></path></g><g node-id="1411"><g node-id="1453"><path d="M 225.10 299.20 L 232.80 294.20 L 236.90 292.10 L 245.60 288.80 L 250.10 287.70 L 254.70 286.90 L 263.90 286.10 L 270.90 286.50 L 277.80 287.40 L 284.60 289.10 L 291.20 291.50 L 295.40 293.50 L 303.40 298.30 L 307.10 301.10 L 313.80 307.40 L 316.80 310.90 L 321.90 318.50 L 317.50 313.30 L 312.70 308.40 L 309.30 305.40 L 302.00 300.20 L 298.10 297.90 L 290.00 294.10 L 283.70 291.90 L 277.20 290.30 L 270.60 289.30 L 263.80 288.90 L 257.10 289.10 L 250.50 289.90 L 243.90 291.40 L 237.50 293.50 L 231.20 296.10 L 225.10 299.20 Z" fill="#eef0f3" fill-rule="nonzero" group-id="10,52" node-id="1093" stroke="none" target-height="32.399994" target-width="96.79999" target-x="225.1" target-y="286.1"></path></g><g node-id="1454"><path d="M 238.40 422.30 L 232.60 420.20 L 227.10 417.50 L 220.10 413.10 L 216.90 410.50 L 212.30 406.30 L 208.20 401.70 L 204.50 396.70 L 201.20 391.40 L 198.50 385.80 L 196.30 379.90 L 194.70 373.90 L 193.70 367.80 L 193.20 361.60 L 193.40 355.40 L 194.20 349.30 L 195.50 343.30 L 194.90 349.40 L 194.90 355.50 L 195.20 361.40 L 196.00 367.40 L 197.30 373.20 L 199.00 379.00 L 201.20 384.60 L 203.80 389.90 L 206.90 395.00 L 210.40 399.90 L 214.20 404.50 L 218.40 408.70 L 222.90 412.70 L 227.80 416.30 L 233.00 419.40 L 238.40 422.30 Z" fill="#eef0f3" fill-rule="nonzero" group-id="10,53" node-id="1098" stroke="none" target-height="79" target-width="45.199997" target-x="193.2" target-y="343.3"></path></g><path d="M 328.10 330.20 L 330.60 335.70 L 332.50 341.50 L 333.90 347.50 L 334.60 353.50 L 334.80 359.60 L 334.40 365.80 L 333.50 371.90 L 332.00 377.90 L 330.00 383.70 L 327.40 389.30 L 324.30 394.60 L 320.80 399.60 L 316.80 404.30 L 312.40 408.50 L 307.60 412.20 L 302.50 415.50 L 307.10 411.60 L 311.40 407.50 L 315.40 403.00 L 319.00 398.30 L 325.00 388.10 L 327.40 382.70 L 329.30 377.10 L 330.80 371.40 L 331.80 365.60 L 332.40 359.70 L 332.40 353.80 L 331.90 347.70 L 331.10 341.80 L 329.80 336.00 L 328.10 330.20 Z" fill="#eef0f3" fill-rule="nonzero" group-id="10,54" node-id="1103" stroke="none" target-height="85.29999" target-width="32.299988" target-x="302.5" target-y="330.2"></path></g><g node-id="1412"><g node-id="1456"><path d="M 262.10 314.10 L 249.90 317.90 L 238.00 322.30 L 240.30 319.90 L 243.00 317.90 L 245.90 316.30 L 249.00 315.00 L 255.50 313.60 L 258.80 313.60 L 262.10 314.10 Z" fill="#eef0f3" fill-rule="nonzero" group-id="11,55" node-id="1111" stroke="none" target-height="8.699982" target-width="24.100006" target-x="238" target-y="313.6"></path></g><g node-id="1457"><path d="M 307.10 346.00 L 300.30 335.10 L 292.90 324.60 L 294.90 325.60 L 298.40 328.40 L 300.70 330.80 L 302.70 333.50 L 304.30 336.40 L 306.50 341.70 L 307.10 346.00 Z" fill="#eef0f3" fill-rule="nonzero" group-id="11,56" node-id="1116" stroke="none" target-height="21.399994" target-width="14.200012" target-x="292.9" target-y="324.6"></path></g><g node-id="1458"><path d="M 275.30 402.70 L 278.80 400.40 L 282.30 398.60 L 285.90 397.10 L 289.90 395.90 L 288.60 397.70 L 287.10 399.10 L 283.50 401.30 L 279.50 402.60 L 277.50 402.90 L 275.30 402.70 Z" fill="#eef0f3" fill-rule="nonzero" group-id="11,57" node-id="1121" stroke="none" target-height="7" target-width="14.600006" target-x="275.3" target-y="395.9"></path></g><g node-id="1459"><path d="M 230.40 389.10 L 234.10 391.20 L 237.30 393.50 L 240.40 396.10 L 243.30 399.10 L 241.10 398.70 L 239.10 398.00 L 235.50 395.80 L 232.50 392.80 L 231.30 391.10 L 230.40 389.10 Z" fill="#eef0f3" fill-rule="nonzero" group-id="11,58" node-id="1126" stroke="none" target-height="10" target-width="12.900009" target-x="230.4" target-y="389.1"></path></g><path d="M 219.60 351.50 L 222.10 375.40 L 220.40 372.80 L 219.10 369.90 L 217.70 363.80 L 217.80 357.60 L 218.50 354.50 L 219.60 351.50 Z" fill="#eef0f3" fill-rule="nonzero" group-id="11,59" node-id="1131" stroke="none" target-height="23.899994" target-width="4.400009" target-x="217.7" target-y="351.5"></path></g><g node-id="1413"><g node-id="1461"><path d="M 258.60 334.60 L 252.50 338.80 L 245.90 342.20 L 247.90 338.70 L 251.00 336.20 L 254.70 334.70 L 256.50 334.40 L 258.60 334.60 Z" fill="#eef0f3" fill-rule="nonzero" group-id="12,60" node-id="1139" stroke="none" target-height="7.8000183" target-width="12.700012" target-x="245.9" target-y="334.4"></path></g><g node-id="1462"><path d="M 286.30 346.30 L 281.30 341.70 L 276.80 336.50 L 280.50 337.40 L 283.50 339.60 L 285.60 342.70 L 286.30 346.30 Z" fill="#eef0f3" fill-rule="nonzero" group-id="12,61" node-id="1144" stroke="none" target-height="9.799988" target-width="9.5" target-x="276.8" target-y="336.5"></path></g><g node-id="1463"><path d="M 273.00 381.60 L 274.50 379.40 L 276.20 377.80 L 278.20 376.60 L 280.70 375.80 L 279.70 378.30 L 278.00 380.10 L 274.40 381.70 L 273.00 381.60 Z" fill="#eef0f3" fill-rule="nonzero" group-id="12,62" node-id="1149" stroke="none" target-height="5.9000244" target-width="7.700012" target-x="273" target-y="375.8"></path></g><g node-id="1464"><path d="M 246.90 380.00 L 249.40 380.20 L 251.40 380.90 L 253.20 382.00 L 254.90 383.80 L 252.40 384.30 L 250.10 383.70 L 248.20 382.30 L 246.90 380.00 Z" fill="#eef0f3" fill-rule="nonzero" group-id="12,63" node-id="1154" stroke="none" target-height="4.299988" target-width="8" target-x="246.9" target-y="380"></path></g><path d="M 237.90 360.80 L 240.10 367.10 L 241.20 373.60 L 239.70 372.50 L 238.60 371.10 L 237.20 367.80 L 236.90 364.30 L 237.20 362.50 L 237.90 360.80 Z" fill="#eef0f3" fill-rule="nonzero" group-id="12,64" node-id="1159" stroke="none" target-height="12.800018" target-width="4.300003" target-x="236.9" target-y="360.8"></path></g><g node-id="1414"><g node-id="1466"><path d="M 274.50 292.50 L 265.30 292.80 L 256.30 293.60 L 247.40 295.00 L 238.40 296.90 L 241.10 295.20 L 246.80 292.70 L 251.30 291.30 L 256.00 290.50 L 260.70 290.10 L 265.40 290.30 L 270.00 291.20 L 274.50 292.50 Z" fill="#eef0f3" fill-rule="nonzero" group-id="13,65" node-id="1167" stroke="none" target-height="6.799988" target-width="36.100006" target-x="238.4" target-y="290.1"></path></g><g node-id="1467"><path d="M 328.40 350.50 L 325.80 341.60 L 322.70 333.00 L 319.00 324.60 L 314.80 316.30 L 317.10 318.50 L 321.00 323.40 L 323.50 327.50 L 325.40 331.80 L 327.00 336.30 L 328.00 341.00 L 328.60 347.30 L 328.40 350.50 Z" fill="#eef0f3" fill-rule="nonzero" group-id="13,66" node-id="1172" stroke="none" target-height="34.200012" target-width="13.800018" target-x="314.8" target-y="316.3"></path></g><g node-id="1468"><path d="M 267.30 420.80 L 278.50 417.70 L 289.90 415.40 L 287.50 417.20 L 284.80 418.60 L 279.20 420.50 L 273.30 421.30 L 270.30 421.30 L 267.30 420.80 Z" fill="#eef0f3" fill-rule="nonzero" group-id="13,67" node-id="1177" stroke="none" target-height="5.899994" target-width="22.600006" target-x="267.3" target-y="415.4"></path></g><g node-id="1469"><path d="M 208.30 388.70 L 216.20 397.30 L 223.50 406.40 L 220.80 405.10 L 218.30 403.30 L 214.00 399.10 L 210.60 394.20 L 209.20 391.60 L 208.30 388.70 Z" fill="#eef0f3" fill-rule="nonzero" group-id="13,68" node-id="1182" stroke="none" target-height="17.699982" target-width="15.199997" target-x="208.3" target-y="388.7"></path></g><path d="M 204.00 332.80 L 201.40 349.80 L 200.50 367.00 L 199.20 362.70 L 198.50 358.40 L 198.30 354.00 L 198.50 349.50 L 199.20 345.10 L 200.30 340.80 L 201.80 336.70 L 204.00 332.80 Z" fill="#eef0f3" fill-rule="nonzero" group-id="13,69" node-id="1187" stroke="none" target-height="34.200012" target-width="5.699997" target-x="198.3" target-y="332.8"></path></g><g node-id="1415"><g node-id="1471"><path d="M 282.60 386.90 L 287.90 380.80 L 292.10 374.20 L 295.20 367.00 L 297.40 359.20 L 297.90 363.40 L 297.60 367.60 L 296.50 371.70 L 294.90 375.60 L 293.40 378.00 L 289.80 382.30 L 287.50 384.20 L 282.60 386.90 Z" fill="#eef0f3" fill-rule="nonzero" group-id="14,70" node-id="1195" stroke="none" target-height="27.699982" target-width="15.299988" target-x="282.6" target-y="359.2"></path></g><g node-id="1472"><path d="M 247.60 388.30 L 255.90 390.10 L 264.00 392.60 L 261.80 393.30 L 259.60 393.50 L 255.20 393.00 L 251.10 391.30 L 249.10 389.90 L 247.60 388.30 Z" fill="#eef0f3" fill-rule="nonzero" group-id="14,71" node-id="1200" stroke="none" target-height="5.200012" target-width="16.399994" target-x="247.6" target-y="388.3"></path></g><g node-id="1473"><path d="M 230.70 359.30 L 232.00 361.70 L 232.60 364.00 L 232.70 366.40 L 232.20 369.00 L 230.40 366.90 L 229.60 364.40 L 229.60 361.80 L 230.70 359.30 Z" fill="#eef0f3" fill-rule="nonzero" group-id="14,72" node-id="1205" stroke="none" target-height="9.700012" target-width="3.0999908" target-x="229.6" target-y="359.3"></path></g><path d="M 285.00 333.40 L 281.50 331.50 L 274.30 328.80 L 268.70 327.70 L 263.00 327.40 L 259.20 327.70 L 251.90 329.40 L 244.90 332.50 L 241.50 334.60 L 244.30 331.70 L 247.40 329.30 L 251.00 327.20 L 256.80 325.20 L 262.90 324.40 L 269.10 324.80 L 275.00 326.50 L 280.50 329.40 L 285.00 333.40 Z" fill="#eef0f3" fill-rule="nonzero" group-id="14,73" node-id="1210" stroke="none" target-height="10.200012" target-width="43.5" target-x="241.5" target-y="324.4"></path></g><g node-id="1416"><g node-id="1475"><path d="M 350.10 390.80 L 352.40 383.70 L 354.20 376.60 L 355.60 369.30 L 356.70 358.30 L 356.60 347.30 L 355.30 336.40 L 352.80 325.70 L 349.10 315.30 L 344.30 305.20 L 350.40 314.60 L 352.90 319.70 L 355.00 324.90 L 356.70 330.30 L 358.10 335.80 L 359.60 347.00 L 359.50 358.30 L 357.90 369.50 L 356.50 375.20 L 354.70 380.60 L 352.60 385.80 L 350.10 390.80 Z" fill="#eef0f3" fill-rule="nonzero" group-id="15,74" node-id="1218" stroke="none" target-height="85.599976" target-width="15.300018" target-x="344.3" target-y="305.2"></path></g><g node-id="1476"><path d="M 269.50 447.20 L 281.20 444.40 L 292.50 441.00 L 303.60 436.80 L 314.60 432.00 L 308.10 436.90 L 304.60 438.90 L 299.10 441.60 L 293.50 443.80 L 287.60 445.50 L 281.60 446.70 L 277.60 447.20 L 269.50 447.20 Z" fill="#eef0f3" fill-rule="nonzero" group-id="15,75" node-id="1223" stroke="none" target-height="15.200012" target-width="45.100006" target-x="269.5" target-y="432"></path></g><g node-id="1477"><path d="M 187.00 407.00 L 191.80 411.70 L 196.20 416.60 L 204.60 426.90 L 201.60 425.30 L 198.80 423.30 L 193.90 418.60 L 189.90 413.20 L 188.30 410.20 L 187.00 407.00 Z" fill="#eef0f3" fill-rule="nonzero" group-id="15,76" node-id="1228" stroke="none" target-height="19.899994" target-width="17.600006" target-x="187" target-y="407"></path></g><path d="M 277.20 265.30 L 269.00 265.30 L 260.80 266.00 L 255.30 266.80 L 244.70 269.20 L 238.40 271.20 L 232.40 273.60 L 226.50 276.40 L 220.80 279.50 L 215.30 283.10 L 206.70 289.70 L 202.60 293.30 L 195.10 301.20 L 191.70 305.50 L 185.60 314.50 L 182.90 319.30 L 179.40 326.70 L 176.40 334.40 L 179.50 323.80 L 181.60 318.70 L 186.80 308.80 L 189.80 304.10 L 193.10 299.60 L 200.60 291.30 L 209.00 283.90 L 213.50 280.60 L 223.10 274.90 L 228.10 272.40 L 233.30 270.30 L 243.90 267.00 L 249.40 265.80 L 260.60 264.50 L 266.10 264.40 L 277.20 265.30 Z" fill="#eef0f3" fill-rule="nonzero" group-id="15,77" node-id="1233" stroke="none" target-height="70" target-width="100.80002" target-x="176.4" target-y="264.4"></path></g><g node-id="1417"><g node-id="1479"><path d="M 191.50 229.20 L 199.00 224.30 L 206.80 219.80 L 214.90 215.90 L 221.10 213.30 L 227.50 211.10 L 240.60 207.70 L 254.00 205.60 L 267.50 204.80 L 276.50 205.10 L 285.50 206.00 L 294.50 207.50 L 307.60 210.80 L 320.30 215.50 L 332.50 221.40 L 344.10 228.50 L 354.80 236.70 L 364.70 246.00 L 373.50 256.20 L 381.20 267.30 L 372.90 256.80 L 363.70 247.10 L 357.10 241.10 L 350.20 235.60 L 342.90 230.50 L 335.30 225.90 L 327.40 221.80 L 319.30 218.20 L 311.00 215.10 L 302.50 212.60 L 293.90 210.60 L 285.20 209.10 L 276.40 208.20 L 267.50 207.80 L 258.60 208.00 L 249.80 208.80 L 241.00 210.10 L 232.40 211.90 L 223.80 214.40 L 215.50 217.30 L 207.30 220.80 L 199.30 224.80 L 191.50 229.20 Z" fill="url(#SVGID_19_)" fill-rule="nonzero" group-id="16,78" node-id="1241" stroke="none" target-height="62.499985" target-width="189.70001" target-x="191.5" target-y="204.8"></path></g><g node-id="1480"><path d="M 217.50 470.50 L 210.00 467.60 L 202.80 464.30 L 195.70 460.50 L 188.80 456.30 L 182.30 451.70 L 176.00 446.60 L 170.10 441.20 L 164.50 435.40 L 159.20 429.30 L 154.30 422.90 L 149.80 416.20 L 145.80 409.20 L 142.20 402.00 L 139.00 394.60 L 136.30 387.00 L 134.00 379.20 L 132.20 371.40 L 130.90 363.40 L 130.10 355.40 L 129.70 347.30 L 129.90 339.30 L 131.10 327.30 L 133.40 315.50 L 132.30 323.40 L 131.60 331.40 L 131.40 339.30 L 131.60 347.20 L 132.20 355.10 L 133.20 363.00 L 134.70 370.80 L 136.60 378.40 L 138.90 386.00 L 141.60 393.40 L 144.80 400.60 L 148.40 407.70 L 152.40 414.50 L 156.70 421.10 L 161.40 427.50 L 166.50 433.60 L 171.90 439.30 L 177.60 444.80 L 183.60 450.00 L 189.90 454.80 L 196.50 459.20 L 203.30 463.40 L 210.30 467.10 L 217.50 470.50 Z" fill="url(#SVGID_20_)" fill-rule="nonzero" group-id="16,79" node-id="1246" stroke="none" target-height="155" target-width="87.8" target-x="129.7" target-y="315.5"></path></g><path d="M 393.40 289.80 L 397.90 300.80 L 401.40 312.10 L 403.10 319.90 L 404.30 327.70 L 405.10 335.60 L 405.40 343.50 L 405.20 351.50 L 404.50 359.40 L 403.40 367.30 L 401.80 375.10 L 399.70 382.80 L 397.20 390.40 L 394.20 397.80 L 390.90 405.00 L 387.10 412.00 L 382.90 418.70 L 378.20 425.20 L 373.20 431.40 L 367.80 437.20 L 362.10 442.70 L 356.10 447.80 L 349.70 452.60 L 343.10 456.90 L 349.40 452.10 L 355.40 447.10 L 361.10 441.70 L 366.50 436.00 L 371.50 430.00 L 376.30 423.80 L 380.70 417.30 L 384.70 410.60 L 388.30 403.70 L 391.50 396.60 L 394.40 389.30 L 396.80 381.90 L 398.80 374.40 L 400.50 366.80 L 401.70 359.10 L 402.40 351.30 L 402.80 343.50 L 402.70 335.70 L 402.20 327.90 L 401.30 320.20 L 399.90 312.50 L 398.20 304.80 L 396.00 297.30 L 393.40 289.80 Z" fill="url(#SVGID_21_)" fill-rule="nonzero" group-id="16,80" node-id="1251" stroke="none" target-height="167.1" target-width="62.299988" target-x="343.1" target-y="289.8"></path></g><g node-id="1418"><g node-id="1482"><path d="M 147.80 311.30 L 151.50 299.80 L 156.30 288.80 L 160.20 281.70 L 164.50 274.90 L 169.30 268.40 L 174.50 262.20 L 180.20 256.40 L 186.20 251.00 L 192.60 246.00 L 199.30 241.50 L 206.30 237.40 L 217.20 232.20 L 228.70 228.10 L 236.50 226.00 L 244.50 224.50 L 252.50 223.50 L 260.60 223.10 L 268.70 223.20 L 276.70 223.80 L 284.70 225.00 L 292.50 226.80 L 300.20 229.10 L 292.40 227.30 L 284.50 226.00 L 276.60 225.20 L 268.60 224.90 L 260.70 225.10 L 252.80 225.70 L 245.00 226.90 L 237.20 228.50 L 229.60 230.70 L 222.10 233.30 L 214.80 236.30 L 207.80 239.90 L 200.90 243.90 L 194.40 248.20 L 188.10 253.00 L 182.10 258.20 L 176.50 263.80 L 171.20 269.70 L 166.30 276.00 L 161.70 282.60 L 157.60 289.50 L 153.90 296.50 L 150.70 303.80 L 147.80 311.30 Z" fill="url(#SVGID_22_)" fill-rule="nonzero" group-id="17,81" node-id="1259" stroke="none" target-height="88.19998" target-width="152.40001" target-x="147.8" target-y="223.1"></path></g><g node-id="1483"><path d="M 303.50 462.70 L 296.70 465.00 L 289.80 466.90 L 282.80 468.30 L 275.70 469.40 L 268.50 469.90 L 261.30 470.00 L 254.10 469.70 L 246.90 468.90 L 239.80 467.70 L 232.80 466.10 L 225.80 464.00 L 219.00 461.50 L 212.40 458.60 L 205.90 455.30 L 199.70 451.70 L 193.70 447.60 L 188.00 443.20 L 182.60 438.50 L 177.50 433.40 L 172.70 428.10 L 168.20 422.40 L 162.20 413.40 L 157.10 404.00 L 160.90 410.10 L 169.40 421.50 L 174.00 426.80 L 184.20 436.70 L 192.50 443.30 L 201.30 449.20 L 207.40 452.70 L 213.70 455.90 L 220.20 458.70 L 226.80 461.20 L 233.60 463.20 L 240.40 464.90 L 247.40 466.20 L 261.40 467.60 L 268.50 467.70 L 275.60 467.50 L 282.60 466.80 L 296.50 464.50 L 303.50 462.70 Z" fill="url(#SVGID_23_)" fill-rule="nonzero" group-id="17,82" node-id="1264" stroke="none" target-height="66" target-width="146.4" target-x="157.1" target-y="404"></path></g><path d="M 321.50 237.80 L 327.80 241.00 L 333.90 244.60 L 339.80 248.60 L 345.40 253.00 L 350.70 257.60 L 355.80 262.60 L 360.50 267.90 L 365.00 273.50 L 369.10 279.30 L 372.80 285.40 L 376.20 291.70 L 379.20 298.20 L 381.80 304.90 L 384.00 311.70 L 385.80 318.60 L 387.10 325.60 L 388.10 332.70 L 388.60 339.80 L 388.70 346.90 L 388.30 354.00 L 387.50 361.10 L 386.20 368.10 L 384.60 374.90 L 382.50 381.70 L 384.10 374.80 L 386.10 360.90 L 386.50 353.90 L 386.30 339.90 L 385.60 332.90 L 383.10 319.20 L 381.30 312.50 L 379.10 305.90 L 376.50 299.40 L 370.40 286.90 L 366.80 280.90 L 362.90 275.10 L 354.20 264.20 L 344.30 254.30 L 338.90 249.70 L 327.50 241.50 L 321.50 237.80 Z" fill="url(#SVGID_24_)" fill-rule="nonzero" group-id="17,83" node-id="1269" stroke="none" target-height="143.90001" target-width="67.20001" target-x="321.5" target-y="237.8"></path></g><g node-id="1419"><g node-id="1485"><path d="M 56.30 432.70 L 52.30 422.70 L 48.80 412.50 L 45.80 402.20 L 43.20 391.70 L 41.20 381.10 L 39.80 370.40 L 39.00 359.60 L 38.70 348.80 L 39.40 329.90 L 41.00 316.40 L 42.80 305.70 L 45.20 295.10 L 48.10 284.70 L 51.50 274.40 L 55.40 264.30 L 58.60 256.80 L 64.70 244.70 L 70.10 235.30 L 75.80 226.20 L 82.10 217.40 L 88.80 208.90 L 95.90 200.70 L 103.40 192.90 L 111.30 185.50 L 119.60 178.50 L 128.20 172.00 L 137.10 165.90 L 146.30 160.30 L 155.80 155.20 L 165.60 150.50 L 175.50 146.30 L 165.70 150.90 L 156.20 155.90 L 146.90 161.30 L 137.90 167.20 L 129.20 173.40 L 120.80 180.10 L 112.80 187.10 L 105.10 194.60 L 97.80 202.40 L 90.80 210.60 L 84.30 219.00 L 78.10 227.80 L 72.40 236.90 L 67.20 246.20 L 62.40 255.70 L 58.10 265.50 L 54.20 275.50 L 50.80 285.60 L 47.90 295.90 L 45.50 306.30 L 43.60 316.80 L 42.20 327.40 L 41.40 338.10 L 41.00 348.80 L 41.10 359.50 L 41.70 370.20 L 42.90 380.90 L 44.70 391.50 L 46.90 401.90 L 49.60 412.30 L 52.70 422.50 L 56.30 432.70 Z" fill="#eef0f3" fill-rule="nonzero" group-id="18,84" node-id="1277" stroke="none" target-height="286.40002" target-width="136.8" target-x="38.7" target-y="146.3"></path></g><g node-id="1486"><path d="M 444.00 467.30 L 438.80 475.40 L 433.30 483.30 L 427.30 490.90 L 419.50 500.00 L 407.60 511.90 L 400.40 518.30 L 392.90 524.40 L 385.10 530.20 L 377.10 535.50 L 368.90 540.60 L 360.40 545.20 L 351.70 549.50 L 342.90 553.40 L 333.90 556.90 L 324.70 560.00 L 315.40 562.70 L 306.00 564.90 L 296.50 566.70 L 287.00 568.10 L 277.30 569.10 L 267.70 569.60 L 258.10 569.70 L 248.40 569.30 L 231.60 567.60 L 224.40 566.50 L 210.30 563.60 L 201.00 561.10 L 191.80 558.20 L 182.80 554.90 L 173.90 551.20 L 192.00 557.50 L 201.30 560.00 L 210.60 562.20 L 229.50 565.40 L 239.00 566.40 L 248.50 567.00 L 267.60 566.90 L 277.10 566.30 L 286.60 565.30 L 296.00 563.90 L 305.40 562.00 L 314.60 559.80 L 323.80 557.10 L 332.90 554.10 L 341.70 550.70 L 350.50 546.90 L 359.10 542.70 L 375.70 533.40 L 383.70 528.10 L 393.40 521.20 L 406.30 510.50 L 418.40 498.90 L 426.40 490.00 L 432.60 482.70 L 444.00 467.30 Z" fill="#eef0f3" fill-rule="nonzero" group-id="18,85" node-id="1282" stroke="none" target-height="102.400024" target-width="270.1" target-x="173.9" target-y="467.3"></path></g><path d="M 214.90 134.10 L 224.20 132.20 L 233.50 130.70 L 243.00 129.60 L 252.50 129.00 L 262.00 128.80 L 271.50 129.10 L 281.00 129.70 L 290.50 130.80 L 299.90 132.30 L 309.30 134.20 L 318.50 136.50 L 327.70 139.30 L 336.70 142.40 L 345.60 145.90 L 354.30 149.80 L 362.80 154.10 L 371.10 158.80 L 379.30 163.80 L 387.10 169.10 L 394.80 174.80 L 409.30 187.20 L 416.10 193.80 L 422.60 200.80 L 428.80 208.10 L 434.70 215.60 L 440.20 223.30 L 445.30 231.30 L 450.10 239.60 L 454.50 248.00 L 458.50 256.60 L 462.10 265.30 L 453.80 248.30 L 444.10 232.00 L 438.80 224.20 L 433.10 216.60 L 427.20 209.30 L 420.90 202.30 L 407.50 189.00 L 393.10 176.90 L 385.50 171.30 L 377.70 166.10 L 369.60 161.20 L 361.40 156.60 L 344.40 148.50 L 326.80 141.80 L 308.70 136.60 L 290.20 133.00 L 271.50 130.90 L 252.60 130.40 L 233.60 131.50 L 214.90 134.10 Z" fill="#eef0f3" fill-rule="nonzero" group-id="18,86" node-id="1287" stroke="none" target-height="136.49998" target-width="247.20001" target-x="214.9" target-y="128.8"></path></g><g node-id="1420"><g node-id="1488"><path d="M 79.00 184.90 L 86.90 176.20 L 95.20 167.90 L 103.90 160.00 L 113.00 152.50 L 125.70 143.30 L 132.30 139.00 L 142.40 133.10 L 152.90 127.60 L 158.20 125.00 L 171.70 119.30 L 185.60 114.40 L 196.90 111.10 L 208.40 108.40 L 220.00 106.30 L 231.70 104.70 L 243.50 103.70 L 255.30 103.30 L 267.10 103.40 L 278.80 104.20 L 290.60 105.60 L 302.30 107.50 L 313.80 110.00 L 325.10 113.10 L 336.40 116.70 L 347.40 120.90 L 358.20 125.70 L 368.70 131.00 L 379.00 136.80 L 388.90 143.20 L 398.50 150.00 L 407.70 157.30 L 416.60 165.00 L 407.50 157.60 L 398.10 150.60 L 388.40 144.10 L 378.30 138.10 L 368.00 132.50 L 357.50 127.50 L 346.70 122.90 L 335.70 118.90 L 324.50 115.50 L 313.20 112.50 L 301.80 110.20 L 290.30 108.30 L 278.70 107.00 L 267.10 106.30 L 252.50 106.20 L 243.80 106.70 L 232.20 107.70 L 220.60 109.20 L 209.10 111.20 L 197.80 113.80 L 186.60 117.00 L 175.50 120.70 L 164.70 125.00 L 154.00 129.70 L 143.50 135.00 L 133.40 140.70 L 126.70 144.80 L 114.00 153.70 L 104.70 160.90 L 95.70 168.50 L 87.20 176.50 L 79.00 184.90 Z" fill="#eef0f3" fill-rule="nonzero" group-id="19,87" node-id="1295" stroke="none" target-height="81.59999" target-width="337.6" target-x="79" target-y="103.3"></path></g><g node-id="1489"><path d="M 230.20 581.20 L 219.80 580.00 L 209.50 578.30 L 199.20 576.10 L 189.00 573.50 L 179.00 570.40 L 169.10 566.90 L 152.20 559.60 L 140.50 553.50 L 131.40 548.20 L 122.50 542.60 L 113.90 536.50 L 105.60 530.10 L 97.60 523.30 L 89.80 516.10 L 82.40 508.60 L 75.40 500.70 L 68.70 492.60 L 62.40 484.20 L 56.50 475.50 L 50.90 466.50 L 45.80 457.30 L 41.10 447.90 L 36.80 438.30 L 32.90 428.50 L 29.50 418.50 L 26.60 408.40 L 24.10 398.20 L 22.10 387.90 L 20.60 377.50 L 19.50 367.10 L 18.90 356.60 L 19.90 367.00 L 21.40 377.40 L 23.20 387.60 L 25.50 397.80 L 28.20 407.90 L 31.40 417.80 L 34.90 427.60 L 38.90 437.30 L 43.30 446.70 L 48.00 456.00 L 53.20 465.00 L 58.80 473.80 L 64.70 482.40 L 70.90 490.70 L 77.60 498.70 L 84.60 506.40 L 91.90 513.80 L 99.50 520.90 L 107.40 527.70 L 115.60 534.10 L 124.00 540.20 L 132.70 545.90 L 141.60 551.20 L 153.10 557.40 L 169.70 564.90 L 179.40 568.60 L 189.30 571.90 L 199.40 574.90 L 209.60 577.50 L 219.80 579.50 L 230.20 581.20 Z" fill="#eef0f3" fill-rule="nonzero" group-id="19,88" node-id="1300" stroke="none" target-height="224.6" target-width="211.3" target-x="18.9" target-y="356.6"></path></g><path d="M 447.20 197.70 L 453.50 205.90 L 459.40 214.40 L 465.00 223.10 L 470.10 232.10 L 474.80 241.30 L 479.10 250.80 L 483.00 260.40 L 486.50 270.20 L 489.50 280.10 L 492.10 290.20 L 494.30 300.40 L 496.00 310.60 L 497.20 321.00 L 498.00 331.30 L 498.30 341.70 L 498.20 352.10 L 497.60 362.50 L 496.60 372.90 L 495.10 383.10 L 493.20 393.30 L 490.80 403.40 L 488.00 413.40 L 484.70 423.30 L 481.00 433.00 L 476.80 442.60 L 472.30 451.90 L 467.30 460.90 L 462.00 469.80 L 456.20 478.40 L 450.10 486.70 L 443.60 494.70 L 436.70 502.50 L 443.20 494.50 L 449.40 486.20 L 455.20 477.70 L 460.70 469.00 L 465.90 460.00 L 470.60 450.90 L 474.90 441.60 L 478.80 432.10 L 482.30 422.40 L 485.40 412.60 L 488.10 402.70 L 490.40 392.70 L 492.20 382.60 L 493.70 372.40 L 494.60 362.20 L 495.20 352.00 L 495.30 341.70 L 495.10 331.50 L 494.30 321.20 L 493.20 311.00 L 491.60 300.80 L 489.60 290.80 L 487.10 280.80 L 484.30 270.90 L 481.10 261.10 L 477.40 251.50 L 473.30 242.10 L 468.80 232.80 L 463.90 223.70 L 458.70 214.80 L 453.10 206.10 L 447.20 197.70 Z" fill="#eef0f3" fill-rule="nonzero" group-id="19,89" node-id="1305" stroke="none" target-height="304.8" target-width="61.599976" target-x="436.7" target-y="197.7"></path></g><g node-id="1421"><g node-id="1491"><path d="M 241.70 115.80 L 252.90 114.90 L 264.20 114.60 L 275.50 114.80 L 294.30 116.40 L 309.20 118.90 L 320.20 121.40 L 336.50 126.10 L 352.30 132.10 L 362.60 136.70 L 372.70 141.90 L 382.50 147.60 L 392.00 153.70 L 401.20 160.30 L 410.10 167.40 L 418.60 174.90 L 426.70 182.80 L 434.50 191.00 L 441.80 199.70 L 448.70 208.80 L 455.00 218.10 L 461.00 227.80 L 466.40 237.70 L 471.30 247.90 L 475.70 258.30 L 479.60 269.00 L 482.90 279.80 L 485.60 290.70 L 487.80 301.80 L 489.40 313.00 L 490.50 324.20 L 489.00 313.00 L 487.00 301.90 L 484.50 291.00 L 481.50 280.20 L 477.90 269.50 L 473.90 259.10 L 469.30 248.80 L 464.30 238.80 L 458.80 229.00 L 452.80 219.50 L 446.40 210.40 L 439.60 201.50 L 432.30 193.00 L 424.70 184.80 L 412.40 173.40 L 399.30 162.80 L 390.30 156.20 L 381.00 150.10 L 371.30 144.40 L 361.40 139.20 L 351.20 134.60 L 340.80 130.40 L 330.20 126.70 L 319.50 123.50 L 308.60 120.80 L 297.60 118.60 L 286.50 117.10 L 275.40 116.00 L 264.20 115.40 L 253.00 115.40 L 241.70 115.80 Z" fill="#eef0f3" fill-rule="nonzero" group-id="20,90" node-id="1313" stroke="none" target-height="209.6" target-width="248.8" target-x="241.7" target-y="114.6"></path></g><g node-id="1492"><path d="M 86.20 492.00 L 79.70 484.30 L 73.60 476.30 L 67.90 468.00 L 62.50 459.50 L 53.00 441.70 L 45.10 423.10 L 41.80 413.50 L 38.90 403.90 L 36.40 394.10 L 34.40 384.20 L 32.80 374.20 L 31.70 364.20 L 31.00 354.10 L 30.80 344.00 L 31.00 333.90 L 31.70 323.80 L 32.90 313.80 L 34.50 303.80 L 36.50 293.90 L 39.00 284.10 L 41.90 274.40 L 45.30 264.90 L 49.10 255.50 L 53.30 246.30 L 57.90 237.30 L 62.90 228.50 L 68.30 220.00 L 74.10 211.80 L 80.20 203.80 L 86.70 196.10 L 74.80 212.30 L 69.30 220.70 L 64.20 229.30 L 57.20 242.60 L 54.00 249.40 L 51.00 256.30 L 47.50 265.70 L 41.60 284.80 L 39.20 294.50 L 37.30 304.30 L 35.80 314.20 L 34.70 324.10 L 34.00 334.00 L 33.80 344.00 L 34.00 354.00 L 34.60 363.90 L 35.70 373.80 L 37.20 383.70 L 39.10 393.50 L 41.40 403.30 L 44.10 412.90 L 48.00 424.80 L 54.60 441.00 L 63.70 458.80 L 68.90 467.50 L 74.30 475.90 L 80.10 484.10 L 86.20 492.00 Z" fill="#eef0f3" fill-rule="nonzero" group-id="20,91" node-id="1318" stroke="none" target-height="295.9" target-width="55.899998" target-x="30.8" target-y="196.1"></path></g><path d="M 490.30 367.20 L 489.30 377.10 L 487.90 386.90 L 486.00 396.60 L 483.60 406.30 L 480.80 415.80 L 477.60 425.20 L 474.00 434.50 L 470.00 443.70 L 465.60 452.60 L 460.80 461.40 L 455.60 469.90 L 450.00 478.10 L 444.00 486.20 L 437.80 493.90 L 431.10 501.40 L 424.20 508.60 L 416.90 515.50 L 409.40 522.00 L 401.60 528.20 L 393.50 534.10 L 385.20 539.60 L 376.60 544.70 L 367.80 549.40 L 358.80 553.70 L 349.60 557.60 L 340.30 561.10 L 330.90 564.20 L 321.30 566.90 L 311.60 569.10 L 301.80 570.90 L 292.00 572.20 L 282.10 573.10 L 301.70 570.10 L 311.40 568.00 L 320.90 565.50 L 330.40 562.60 L 339.70 559.40 L 348.90 555.70 L 357.90 551.60 L 366.70 547.20 L 375.30 542.40 L 383.70 537.20 L 391.90 531.70 L 399.90 525.90 L 407.60 519.70 L 415.00 513.20 L 422.10 506.40 L 429.00 499.30 L 435.50 492.00 L 441.70 484.30 L 447.70 476.50 L 453.20 468.30 L 458.50 460.00 L 463.40 451.50 L 467.90 442.70 L 472.10 433.80 L 475.80 424.70 L 479.20 415.40 L 482.20 405.90 L 484.90 396.40 L 487.10 386.80 L 488.90 377.10 L 490.30 367.20 Z" fill="#eef0f3" fill-rule="nonzero" group-id="20,92" node-id="1323" stroke="none" target-height="205.89996" target-width="208.19998" target-x="282.1" target-y="367.2"></path></g><g node-id="1422"><g node-id="1494"><path d="M 81.10 377.30 L 79.80 368.10 L 79.00 358.80 L 78.70 349.50 L 78.70 340.20 L 79.30 330.90 L 80.40 321.60 L 81.90 312.40 L 85.00 298.80 L 89.20 285.40 L 92.50 276.70 L 96.30 268.20 L 100.60 259.90 L 105.20 251.80 L 110.20 243.90 L 115.60 236.20 L 121.30 228.90 L 127.40 221.80 L 140.70 208.60 L 147.80 202.50 L 155.30 196.80 L 163.00 191.50 L 171.00 186.60 L 179.20 182.10 L 187.60 178.00 L 196.10 174.40 L 204.90 171.20 L 213.80 168.50 L 222.80 166.20 L 231.90 164.40 L 241.10 163.00 L 232.00 164.80 L 223.00 167.00 L 214.10 169.60 L 205.30 172.60 L 196.70 176.00 L 188.30 179.80 L 180.10 184.00 L 172.10 188.60 L 164.30 193.60 L 156.80 199.00 L 149.60 204.60 L 142.60 210.70 L 135.90 217.00 L 129.60 223.70 L 123.60 230.60 L 117.90 237.90 L 112.50 245.40 L 107.50 253.20 L 102.90 261.10 L 98.70 269.30 L 94.90 277.70 L 91.50 286.30 L 88.50 295.00 L 85.90 303.80 L 83.70 312.80 L 82.00 321.90 L 80.70 331.00 L 79.90 340.20 L 79.80 358.80 L 81.10 377.30 Z" fill="url(#SVGID_25_)" fill-rule="nonzero" group-id="21,93" node-id="1331" stroke="none" target-height="214.29999" target-width="162.40001" target-x="78.7" target-y="163"></path></g><g node-id="1495"><path d="M 397.70 488.20 L 391.70 493.90 L 385.40 499.30 L 372.10 509.30 L 357.90 518.00 L 343.00 525.30 L 327.50 531.30 L 311.50 535.90 L 295.10 539.00 L 278.50 540.70 L 261.80 540.90 L 245.20 539.50 L 228.80 536.60 L 212.70 532.30 L 204.90 529.60 L 193.30 524.90 L 182.10 519.40 L 167.90 510.90 L 161.00 506.20 L 154.50 501.20 L 168.40 510.20 L 182.90 518.10 L 192.90 522.70 L 203.10 526.70 L 213.50 530.10 L 229.50 534.10 L 245.70 536.70 L 256.60 537.70 L 267.60 538.10 L 278.50 537.80 L 289.40 536.90 L 300.30 535.40 L 311.00 533.30 L 321.60 530.50 L 332.00 527.20 L 342.30 523.30 L 357.20 516.40 L 371.40 508.10 L 384.90 498.70 L 397.70 488.20 Z" fill="url(#SVGID_26_)" fill-rule="nonzero" group-id="21,94" node-id="1336" stroke="none" target-height="52.700012" target-width="243.20001" target-x="154.5" target-y="488.2"></path></g><path d="M 276.70 161.40 L 287.60 162.00 L 298.40 163.20 L 309.20 165.00 L 325.10 169.00 L 340.60 174.50 L 355.60 181.30 L 369.90 189.40 L 379.00 195.50 L 387.80 202.10 L 396.20 209.20 L 407.90 220.80 L 418.60 233.30 L 428.10 246.70 L 436.30 261.00 L 441.00 270.90 L 445.20 281.00 L 448.80 291.40 L 452.90 307.30 L 455.50 323.40 L 453.40 312.70 L 450.70 302.20 L 447.40 291.80 L 443.60 281.60 L 439.20 271.70 L 434.30 262.10 L 428.80 252.70 L 422.90 243.70 L 416.40 235.10 L 409.40 226.80 L 402.00 218.90 L 394.20 211.40 L 386.00 204.40 L 377.40 197.80 L 368.50 191.80 L 359.20 186.20 L 349.60 181.10 L 339.80 176.60 L 329.70 172.60 L 319.40 169.20 L 308.90 166.40 L 298.30 164.10 L 287.60 162.50 L 276.70 161.40 Z" fill="url(#SVGID_27_)" fill-rule="nonzero" group-id="21,95" node-id="1341" stroke="none" target-height="162" target-width="178.79999" target-x="276.7" target-y="161.4"></path></g><g node-id="1423"><g node-id="1497"><path d="M 173.90 207.50 L 180.90 202.90 L 188.00 198.60 L 195.40 194.70 L 203.00 191.20 L 210.80 188.10 L 218.70 185.40 L 226.80 183.10 L 239.00 180.30 L 251.50 178.60 L 259.90 177.90 L 268.30 177.70 L 285.10 178.60 L 301.70 181.00 L 318.00 185.10 L 326.00 187.80 L 333.80 190.90 L 348.90 198.20 L 356.20 202.40 L 363.20 207.00 L 370.00 211.90 L 376.50 217.20 L 382.80 222.70 L 388.80 228.60 L 394.40 234.80 L 399.70 241.30 L 404.70 248.00 L 409.40 254.90 L 399.10 241.80 L 387.80 229.70 L 381.70 224.00 L 375.40 218.70 L 368.80 213.70 L 362.00 209.00 L 347.70 200.60 L 332.80 193.60 L 325.00 190.70 L 317.20 188.10 L 309.20 186.00 L 301.10 184.20 L 284.80 181.70 L 268.30 180.80 L 251.80 181.50 L 235.40 183.70 L 219.30 187.40 L 211.40 189.90 L 203.60 192.80 L 196.00 195.90 L 188.50 199.40 L 173.90 207.50 Z" fill="#eef0f3" fill-rule="nonzero" group-id="22,96" node-id="1349" stroke="none" target-height="77.2" target-width="235.5" target-x="173.9" target-y="177.7"></path></g><g node-id="1498"><path d="M 206.20 507.00 L 197.00 503.40 L 188.00 499.20 L 179.20 494.50 L 170.80 489.20 L 162.70 483.40 L 154.90 477.10 L 147.50 470.40 L 140.60 463.20 L 134.10 455.60 L 128.10 447.60 L 122.50 439.30 L 117.50 430.70 L 113.00 421.80 L 109.10 412.60 L 105.70 403.20 L 102.80 393.60 L 100.60 383.90 L 99.00 374.00 L 97.70 359.10 L 97.70 344.20 L 99.10 329.40 L 101.80 314.80 L 100.40 324.60 L 99.50 334.40 L 99.10 344.30 L 99.30 354.20 L 100.00 364.00 L 101.30 373.80 L 104.20 388.30 L 108.40 402.40 L 111.80 411.60 L 115.70 420.60 L 120.20 429.40 L 125.10 437.90 L 130.50 446.10 L 136.40 454.00 L 142.70 461.50 L 149.40 468.70 L 156.50 475.50 L 164.00 481.90 L 171.80 487.80 L 180.00 493.30 L 192.80 500.60 L 206.20 507.00 Z" fill="#eef0f3" fill-rule="nonzero" group-id="22,97" node-id="1354" stroke="none" target-height="192.20001" target-width="108.5" target-x="97.7" target-y="314.8"></path></g><path d="M 424.50 282.70 L 428.30 291.70 L 431.50 301.00 L 434.20 310.40 L 436.30 320.00 L 437.80 329.70 L 438.70 339.50 L 439.00 354.30 L 438.00 369.00 L 436.60 378.80 L 434.60 388.40 L 432.10 398.00 L 429.00 407.40 L 425.40 416.60 L 421.20 425.50 L 416.50 434.20 L 411.30 442.50 L 405.60 450.60 L 399.40 458.30 L 392.80 465.60 L 385.80 472.40 L 378.30 478.80 L 370.50 484.70 L 362.40 490.20 L 370.20 484.30 L 377.70 478.10 L 384.80 471.40 L 391.60 464.30 L 397.90 456.90 L 403.80 449.20 L 409.30 441.20 L 414.30 432.90 L 418.80 424.30 L 422.90 415.50 L 426.40 406.40 L 429.40 397.20 L 431.90 387.80 L 433.90 378.30 L 435.40 368.80 L 436.30 359.10 L 436.70 349.40 L 436.60 339.70 L 435.90 330.00 L 434.60 320.40 L 432.80 310.80 L 430.60 301.30 L 427.80 291.90 L 424.50 282.70 Z" fill="#eef0f3" fill-rule="nonzero" group-id="22,98" node-id="1359" stroke="none" target-height="207.5" target-width="76.600006" target-x="362.4" target-y="282.7"></path></g><g node-id="1424"><g node-id="1500"><path d="M 378.80 236.00 L 389.40 247.40 L 398.80 259.70 L 403.00 266.20 L 406.90 273.00 L 410.40 280.00 L 415.10 290.70 L 418.30 299.90 L 420.90 309.30 L 422.60 316.90 L 424.20 327.20 L 425.10 337.60 L 425.40 348.00 L 424.50 363.60 L 422.00 379.10 L 419.20 390.50 L 415.50 401.60 L 412.60 408.80 L 405.60 422.80 L 401.60 429.50 L 397.30 435.90 L 387.60 448.10 L 376.80 459.20 L 383.70 451.50 L 390.10 443.50 L 396.10 435.00 L 400.20 428.50 L 403.90 421.80 L 407.40 414.90 L 410.50 407.90 L 414.10 398.30 L 417.00 388.50 L 419.40 378.50 L 421.70 363.30 L 422.50 348.00 L 422.30 337.80 L 421.40 327.60 L 419.90 317.40 L 416.40 302.40 L 411.50 287.90 L 405.20 273.90 L 397.60 260.50 L 391.80 252.00 L 385.50 243.80 L 378.80 236.00 Z" fill="#eef0f3" fill-rule="nonzero" group-id="23,99" node-id="1367" stroke="none" target-height="223.20001" target-width="48.600006" target-x="376.8" target-y="236"></path></g><g node-id="1501"><path d="M 110.70 317.80 L 112.40 308.70 L 114.60 299.80 L 117.40 290.90 L 120.70 282.30 L 124.60 273.90 L 129.00 265.70 L 133.90 257.80 L 139.20 250.20 L 145.00 242.90 L 151.20 236.00 L 157.90 229.50 L 164.90 223.30 L 172.30 217.60 L 180.00 212.40 L 188.00 207.60 L 196.20 203.40 L 204.70 199.60 L 213.50 196.40 L 226.90 192.60 L 240.50 190.00 L 254.30 188.70 L 268.10 188.70 L 258.90 189.10 L 249.80 190.10 L 240.70 191.50 L 231.70 193.40 L 222.90 195.70 L 214.20 198.60 L 201.50 203.80 L 189.30 210.10 L 181.50 214.80 L 173.90 220.00 L 166.70 225.60 L 159.80 231.60 L 153.30 238.00 L 147.10 244.70 L 141.30 251.80 L 135.90 259.10 L 130.90 266.80 L 126.30 274.70 L 122.30 282.90 L 118.70 291.40 L 115.60 300.00 L 112.90 308.80 L 110.70 317.80 Z" fill="#eef0f3" fill-rule="nonzero" group-id="23,100" node-id="1372" stroke="none" target-height="129.09999" target-width="157.40001" target-x="110.7" target-y="188.7"></path></g><path d="M 353.70 478.10 L 346.10 483.20 L 338.20 487.80 L 330.10 491.90 L 317.40 497.10 L 304.30 501.10 L 295.30 503.10 L 286.30 504.60 L 277.20 505.60 L 268.00 506.00 L 258.80 505.90 L 249.70 505.20 L 240.60 504.00 L 231.60 502.20 L 222.70 500.00 L 214.00 497.20 L 205.40 493.90 L 197.10 490.10 L 189.00 485.80 L 181.20 481.00 L 173.70 475.70 L 166.60 470.00 L 159.80 463.90 L 153.40 457.30 L 160.20 463.40 L 167.20 469.10 L 174.60 474.50 L 182.20 479.40 L 190.00 483.90 L 198.10 487.90 L 206.40 491.50 L 214.90 494.60 L 223.50 497.20 L 232.30 499.40 L 241.10 501.00 L 250.10 502.20 L 259.10 502.90 L 268.10 503.10 L 277.10 502.80 L 286.10 501.90 L 295.00 500.60 L 303.90 498.80 L 312.60 496.50 L 321.10 493.80 L 329.60 490.50 L 337.80 486.80 L 345.90 482.70 L 353.70 478.10 Z" fill="#eef0f3" fill-rule="nonzero" group-id="23,101" node-id="1377" stroke="none" target-height="48.700012" target-width="200.30002" target-x="153.4" target-y="457.3"></path></g><g node-id="1425"><g node-id="1503"><path d="M 453.80 427.10 L 457.40 417.70 L 460.60 408.20 L 463.30 398.60 L 465.60 389.00 L 467.50 379.20 L 468.80 371.00 L 470.30 354.50 L 470.50 337.90 L 470.20 329.60 L 468.50 313.10 L 467.20 304.90 L 465.50 296.80 L 461.10 280.80 L 455.50 265.20 L 452.20 257.50 L 446.80 246.20 L 440.70 235.30 L 449.60 249.40 L 453.60 256.80 L 460.50 272.10 L 463.40 280.00 L 467.10 292.00 L 470.00 304.30 L 471.40 312.60 L 473.30 329.30 L 473.60 337.70 L 473.30 354.50 L 471.50 371.20 L 470.00 379.50 L 467.70 389.40 L 464.90 399.20 L 461.70 408.70 L 458.00 418.00 L 453.80 427.10 Z" fill="#eef0f3" fill-rule="nonzero" group-id="24,102" node-id="1385" stroke="none" target-height="191.8" target-width="32.899994" target-x="440.7" target-y="235.3"></path></g><g node-id="1504"><path d="M 273.00 553.50 L 286.30 551.40 L 299.50 548.70 L 312.50 545.40 L 325.30 541.40 L 337.90 536.80 L 350.20 531.60 L 362.30 525.80 L 374.20 519.40 L 366.80 524.60 L 359.20 529.30 L 351.20 533.70 L 338.90 539.50 L 326.20 544.30 L 313.20 548.20 L 299.90 551.10 L 291.00 552.40 L 282.00 553.20 L 273.00 553.50 Z" fill="#eef0f3" fill-rule="nonzero" group-id="24,103" node-id="1390" stroke="none" target-height="34.099976" target-width="101.20001" target-x="273" target-y="519.4"></path></g><g node-id="1505"><path d="M 87.90 463.30 L 107.10 486.00 L 127.40 507.70 L 121.30 503.40 L 115.50 498.60 L 110.00 493.40 L 104.80 487.90 L 100.00 482.10 L 95.50 476.00 L 91.50 469.90 L 87.90 463.30 Z" fill="#eef0f3" fill-rule="nonzero" group-id="24,104" node-id="1395" stroke="none" target-height="44.400024" target-width="39.5" target-x="87.9" target-y="463.3"></path></g><path d="M 290.20 145.40 L 271.70 144.90 L 253.20 146.00 L 244.00 147.10 L 234.90 148.60 L 225.90 150.40 L 216.90 152.70 L 199.30 158.40 L 182.30 165.40 L 165.90 173.90 L 150.30 183.70 L 135.50 194.70 L 121.70 206.90 L 109.00 220.20 L 97.40 234.60 L 92.10 242.10 L 87.10 249.90 L 82.40 257.90 L 78.10 266.10 L 70.40 282.90 L 64.20 300.40 L 66.70 291.50 L 69.60 282.70 L 73.00 274.00 L 76.70 265.40 L 80.90 257.10 L 85.40 248.90 L 90.30 241.00 L 95.50 233.20 L 101.10 225.70 L 107.00 218.50 L 119.70 204.80 L 133.60 192.40 L 148.60 181.10 L 156.40 176.00 L 164.50 171.20 L 172.70 166.80 L 181.10 162.80 L 189.70 159.10 L 198.40 155.80 L 207.30 152.90 L 216.30 150.40 L 234.60 146.60 L 253.10 144.40 L 271.70 144.20 L 290.20 145.40 Z" fill="#eef0f3" fill-rule="nonzero" group-id="24,105" node-id="1400" stroke="none" target-height="156.2" target-width="226.00002" target-x="64.2" target-y="144.2"></path></g></svg>