<?xml version="1.0" standalone="no"?><!DOCTYPE svg PUBLIC "-//W3C//DTD SVG 1.1//EN" "http://www.w3.org/Graphics/SVG/1.1/DTD/svg11.dtd"><svg height="1024" node-id="1" sillyvg="true" template-height="1024" template-width="1024" version="1.1" viewBox="0 0 1024 1024" width="1024" xmlns="http://www.w3.org/2000/svg" xmlns:xlink="http://www.w3.org/1999/xlink"><defs node-id="52"></defs><g node-id="183"><g node-id="195"><g node-id="207"><path d="M 456.80 279.30 L 465.80 275.30 L 474.80 270.70 L 483.60 265.30 L 492.40 259.20 L 501.10 252.20 L 509.70 244.50 L 518.20 235.80 L 526.80 226.30 L 512.30 225.80 L 496.90 226.10 L 481.80 227.30 L 467.00 229.20 L 452.40 231.80 L 438.10 235.30 L 424.00 239.40 L 410.20 244.30 L 396.40 250.00 L 382.90 256.40 L 369.50 263.70 L 356.30 271.80 L 375.30 280.30 L 384.20 283.20 L 393.10 285.40 L 402.00 286.80 L 410.90 287.50 L 419.90 287.40 L 428.90 286.50 L 438.10 284.90 L 447.30 282.50 L 456.80 279.30 Z" fill="#fcfcfc" fill-rule="nonzero" group-id="1,13,25" node-id="60" stroke="none" target-height="61.699997" target-width="170.5" target-x="356.3" target-y="225.8"></path></g></g></g><g node-id="184"><g node-id="196"><g node-id="208"><path d="M 612.30 243.80 L 598.30 238.90 L 584.30 234.90 L 570.10 231.60 L 555.80 229.10 L 541.40 227.30 L 526.80 226.30 L 518.20 235.80 L 509.70 244.50 L 501.10 252.20 L 492.40 259.20 L 483.60 265.30 L 474.80 270.70 L 465.80 275.30 L 456.80 279.30 L 447.30 282.50 L 438.10 284.90 L 428.90 286.50 L 419.90 287.40 L 410.90 287.50 L 402.00 286.80 L 393.10 285.40 L 384.20 283.20 L 375.30 280.30 L 356.30 271.80 L 344.90 279.50 L 334.10 287.50 L 323.90 295.90 L 314.30 304.50 L 305.30 313.50 L 296.70 322.70 L 288.80 332.30 L 297.80 328.00 L 312.50 321.70 L 334.80 312.80 L 339.80 311.80 L 346.10 311.30 L 353.70 311.60 L 362.90 312.70 L 374.00 314.80 L 387.20 318.10 L 402.90 322.80 L 430.90 332.50 L 439.50 334.70 L 447.20 336.10 L 454.10 336.70 L 460.20 336.70 L 465.80 336.00 L 470.70 334.80 L 475.20 333.00 L 479.30 330.80 L 482.90 328.00 L 486.30 324.70 L 497.80 310.40 L 506.70 300.80 L 515.80 292.00 L 525.20 284.00 L 534.90 276.70 L 544.90 270.00 L 555.20 264.00 L 565.90 258.70 L 576.90 254.00 L 588.30 249.90 L 600.00 246.50 L 612.30 243.80 Z" fill="#efefef" fill-rule="nonzero" group-id="2,14,26" node-id="71" stroke="none" target-height="110.40001" target-width="323.5" target-x="288.8" target-y="226.3"></path></g></g></g><g node-id="185"><g node-id="197"><g node-id="209"><path d="M 489.30 320.80 L 486.30 324.70 L 482.90 328.00 L 479.30 330.80 L 475.20 333.00 L 470.70 334.80 L 465.80 336.00 L 460.20 336.70 L 454.10 336.70 L 447.20 336.10 L 439.50 334.70 L 430.90 332.50 L 402.90 322.80 L 387.20 318.10 L 374.00 314.80 L 362.90 312.70 L 353.70 311.60 L 346.10 311.30 L 339.80 311.80 L 334.80 312.80 L 312.50 321.70 L 297.80 328.00 L 288.80 332.30 L 273.30 352.80 L 278.90 350.70 L 284.80 349.30 L 290.80 348.40 L 297.20 348.10 L 303.80 348.40 L 310.80 349.30 L 317.90 350.70 L 324.70 352.70 L 331.10 355.10 L 337.10 357.90 L 342.80 361.30 L 366.40 376.00 L 409.80 403.80 L 419.00 408.00 L 427.90 411.40 L 436.40 413.90 L 444.60 415.60 L 452.50 416.50 L 460.20 416.60 L 467.70 416.10 L 475.00 414.90 L 482.20 412.90 L 489.30 410.30 L 494.80 407.10 L 500.70 403.00 L 507.00 398.00 L 513.70 391.80 L 520.80 384.40 L 528.40 375.60 L 536.60 365.30 L 555.60 338.50 L 564.70 326.60 L 572.50 317.00 L 579.40 309.60 L 585.30 303.90 L 590.40 299.70 L 594.80 296.70 L 600.90 293.30 L 607.30 290.50 L 613.90 288.30 L 620.90 286.80 L 628.20 286.00 L 635.90 285.90 L 644.10 286.40 L 652.80 287.80 L 662.10 290.00 L 674.50 293.50 L 690.50 298.60 L 710.80 305.80 L 699.60 295.50 L 688.10 286.00 L 676.30 277.20 L 664.20 269.10 L 651.70 261.80 L 638.90 255.10 L 625.80 249.10 L 612.30 243.80 L 600.00 246.50 L 588.30 249.90 L 576.90 254.00 L 565.90 258.70 L 555.20 264.00 L 544.90 270.00 L 534.90 276.70 L 525.20 284.00 L 515.80 292.00 L 506.70 300.80 L 497.80 310.40 L 489.30 320.80 Z" fill="#e5e5e5" fill-rule="nonzero" group-id="3,15,27" node-id="82" stroke="none" target-height="172.8" target-width="437.5" target-x="273.3" target-y="243.8"></path></g></g></g><g node-id="186"><g node-id="198"><g node-id="210"><path d="M 765.30 377.30 L 758.30 365.10 L 751.10 353.60 L 743.60 342.70 L 735.80 332.60 L 727.70 323.00 L 719.40 314.10 L 710.80 305.80 L 690.50 298.60 L 674.50 293.50 L 662.10 290.00 L 652.80 287.80 L 644.10 286.40 L 635.90 285.90 L 628.20 286.00 L 620.90 286.80 L 613.90 288.30 L 607.30 290.50 L 600.90 293.30 L 594.80 296.70 L 590.40 299.70 L 585.30 303.90 L 579.40 309.60 L 572.50 317.00 L 564.70 326.60 L 555.60 338.50 L 536.60 365.30 L 528.40 375.60 L 520.80 384.40 L 513.70 391.80 L 507.00 398.00 L 500.70 403.00 L 494.80 407.10 L 489.30 410.30 L 482.20 412.90 L 475.00 414.90 L 467.70 416.10 L 460.20 416.60 L 452.50 416.50 L 444.60 415.60 L 436.40 413.90 L 427.90 411.40 L 419.00 408.00 L 409.80 403.80 L 366.40 376.00 L 342.80 361.30 L 337.10 357.90 L 331.10 355.10 L 324.70 352.70 L 317.90 350.70 L 310.80 349.30 L 303.80 348.40 L 297.20 348.10 L 290.80 348.40 L 284.80 349.30 L 278.90 350.70 L 273.30 352.80 L 265.50 365.30 L 258.50 378.10 L 252.10 391.10 L 246.40 404.30 L 241.30 417.80 L 246.90 415.50 L 252.80 413.90 L 258.90 413.10 L 265.30 413.00 L 272.00 413.60 L 279.10 415.10 L 286.60 417.50 L 294.70 420.80 L 303.30 425.30 L 309.60 429.20 L 320.00 436.40 L 335.90 448.40 L 359.30 466.80 L 369.40 473.40 L 379.50 479.20 L 389.80 484.20 L 400.10 488.50 L 410.50 492.10 L 421.10 494.90 L 431.80 497.10 L 442.60 498.60 L 453.70 499.40 L 464.90 499.40 L 476.40 498.80 L 488.20 497.40 L 500.20 495.30 L 512.10 492.30 L 523.10 488.80 L 533.50 484.70 L 543.20 480.10 L 552.30 475.00 L 560.80 469.20 L 568.80 463.00 L 576.30 456.10 L 583.20 448.70 L 589.70 440.70 L 595.70 432.00 L 601.20 422.70 L 606.20 412.60 L 610.80 401.80 L 613.30 396.80 L 616.20 392.50 L 619.40 388.90 L 622.90 385.90 L 626.80 383.40 L 631.20 381.50 L 636.00 380.10 L 641.30 379.20 L 647.30 379.00 L 653.90 379.50 L 661.40 380.70 L 689.70 388.20 L 705.40 391.80 L 717.50 393.90 L 726.60 394.90 L 733.20 395.10 L 738.00 394.60 L 741.30 393.80 L 747.60 390.30 L 753.70 386.40 L 759.60 382.10 L 765.30 377.30 Z" fill="#dbdbdb" fill-rule="nonzero" group-id="4,16,28" node-id="93" stroke="none" target-height="213.5" target-width="524" target-x="241.3" target-y="285.9"></path></g></g></g><g node-id="187"><g node-id="199"><g node-id="211"><path d="M 474.80 781.80 L 463.00 779.90 L 452.30 778.80 L 442.50 778.60 L 433.50 779.20 L 425.30 780.40 L 417.80 782.30 L 430.60 786.50 L 443.70 790.10 L 457.00 793.00 L 470.40 795.30 L 484.10 796.90 L 498.10 797.90 L 512.30 798.30 L 534.30 797.30 L 507.60 789.70 L 488.30 784.80 L 474.80 781.80 Z" fill="#8c8c8c" fill-rule="nonzero" group-id="5,17,29" node-id="104" stroke="none" target-height="19.700012" target-width="116.5" target-x="417.8" target-y="778.6"></path></g></g></g><g node-id="188"><g node-id="200"><g node-id="212"><path d="M 618.30 745.80 L 614.10 742.00 L 610.10 739.10 L 606.10 736.90 L 602.30 735.40 L 598.50 734.50 L 594.80 734.30 L 590.40 734.60 L 584.10 735.90 L 575.20 738.40 L 563.00 742.70 L 546.80 749.10 L 516.90 761.90 L 508.60 764.50 L 500.80 766.30 L 493.50 767.30 L 486.60 767.50 L 480.10 767.00 L 473.90 765.80 L 468.00 764.00 L 462.30 761.50 L 448.20 753.50 L 439.30 749.40 L 430.20 745.70 L 420.70 742.50 L 410.90 739.90 L 400.80 737.80 L 390.00 736.30 L 379.40 735.50 L 369.10 735.50 L 358.80 736.20 L 348.70 737.60 L 338.80 739.80 L 349.20 747.50 L 359.90 754.70 L 370.90 761.30 L 382.20 767.30 L 393.70 772.90 L 405.60 777.80 L 417.80 782.30 L 425.30 780.40 L 433.50 779.20 L 442.50 778.60 L 452.30 778.80 L 463.00 779.90 L 474.80 781.80 L 488.30 784.80 L 507.60 789.70 L 534.30 797.30 L 548.60 795.80 L 562.60 793.70 L 576.10 791.00 L 589.30 787.70 L 602.00 783.90 L 614.40 779.40 L 626.50 774.40 L 638.30 768.80 L 621.40 749.00 L 618.30 745.80 Z" fill="#9b9b9b" fill-rule="nonzero" group-id="6,18,30" node-id="115" stroke="none" target-height="63" target-width="299.5" target-x="338.8" target-y="734.3"></path></g></g></g><g node-id="189"><g node-id="201"><g node-id="213"><path d="M 285.80 653.30 L 278.20 652.20 L 271.90 651.90 L 266.60 652.10 L 262.30 652.80 L 269.50 665.10 L 277.40 677.00 L 286.00 688.40 L 295.10 699.50 L 305.00 710.10 L 315.50 720.40 L 326.80 730.30 L 338.80 739.80 L 348.70 737.60 L 358.80 736.20 L 369.10 735.50 L 379.40 735.50 L 390.00 736.30 L 400.80 737.80 L 410.90 739.90 L 420.70 742.50 L 430.20 745.70 L 439.30 749.40 L 448.20 753.50 L 462.30 761.50 L 468.00 764.00 L 473.90 765.80 L 480.10 767.00 L 486.60 767.50 L 493.50 767.30 L 500.80 766.30 L 508.60 764.50 L 516.90 761.90 L 546.80 749.10 L 563.00 742.70 L 575.20 738.40 L 584.10 735.90 L 590.40 734.60 L 594.80 734.30 L 598.50 734.50 L 602.30 735.40 L 606.10 736.90 L 610.10 739.10 L 614.10 742.00 L 621.40 749.00 L 638.30 768.80 L 651.50 762.00 L 664.10 754.80 L 676.20 747.10 L 687.60 738.90 L 698.50 730.20 L 708.90 721.10 L 718.80 711.40 L 728.20 701.30 L 737.00 690.60 L 745.40 679.40 L 753.40 667.60 L 760.80 655.20 L 767.80 642.30 L 761.50 644.80 L 753.80 648.70 L 744.10 654.40 L 732.30 662.20 L 718.00 672.50 L 686.40 696.90 L 674.10 705.80 L 663.60 712.80 L 654.60 718.10 L 647.00 721.90 L 640.60 724.60 L 635.30 726.30 L 629.60 726.90 L 623.10 727.00 L 615.90 726.50 L 607.80 725.20 L 598.70 723.00 L 588.50 719.90 L 577.10 715.70 L 549.30 703.80 L 537.10 699.20 L 527.40 696.10 L 519.60 694.20 L 513.50 693.40 L 508.80 693.30 L 428.10 701.00 L 397.70 703.50 L 389.80 703.80 L 378.50 702.80 L 367.70 701.10 L 357.30 698.80 L 347.30 695.70 L 337.60 691.90 L 328.30 687.30 L 319.20 682.10 L 310.50 676.10 L 302.00 669.30 L 293.80 661.70 L 285.80 653.30 Z" fill="#aaaaaa" fill-rule="nonzero" group-id="7,19,31" node-id="126" stroke="none" target-height="126.5" target-width="505.5" target-x="262.3" target-y="642.3"></path></g></g></g><g node-id="190"><g node-id="202"><g node-id="214"><path d="M 795.20 560.30 L 763.50 559.10 L 745.30 558.80 L 738.20 559.20 L 731.70 560.30 L 725.60 562.10 L 719.90 564.40 L 714.50 567.40 L 709.50 571.00 L 704.70 575.30 L 700.30 580.30 L 692.40 594.20 L 682.30 613.00 L 669.80 637.80 L 665.00 645.30 L 660.00 651.90 L 654.90 657.80 L 649.70 663.00 L 644.30 667.50 L 638.80 671.30 L 633.10 674.60 L 627.30 677.30 L 620.90 679.10 L 614.60 680.10 L 608.30 680.50 L 601.90 680.10 L 595.50 679.00 L 588.90 677.10 L 582.20 674.40 L 575.40 670.80 L 544.30 650.20 L 531.00 641.70 L 524.40 637.90 L 521.80 636.80 L 514.00 635.50 L 505.40 634.80 L 495.70 634.70 L 485.00 635.30 L 473.00 636.60 L 459.80 638.80 L 431.40 644.60 L 411.30 648.20 L 397.80 650.30 L 387.10 651.20 L 376.90 651.30 L 367.30 650.70 L 358.20 649.40 L 349.50 647.40 L 341.20 644.70 L 333.30 641.30 L 325.70 637.20 L 318.40 632.40 L 311.40 626.80 L 304.60 620.50 L 298.10 613.30 L 291.80 605.30 L 285.80 596.30 L 281.80 592.90 L 277.20 589.90 L 271.70 587.40 L 265.30 585.30 L 260.00 583.90 L 255.30 583.30 L 250.80 583.30 L 246.70 583.90 L 242.90 585.10 L 239.20 586.90 L 235.80 589.30 L 239.70 602.80 L 244.40 615.80 L 249.60 628.50 L 255.60 640.80 L 262.30 652.80 L 266.60 652.10 L 271.90 651.90 L 278.20 652.20 L 285.80 653.30 L 293.80 661.70 L 302.00 669.30 L 310.50 676.10 L 319.20 682.10 L 328.30 687.30 L 337.60 691.90 L 347.30 695.70 L 357.30 698.80 L 367.70 701.10 L 378.50 702.80 L 389.80 703.80 L 397.70 703.50 L 428.10 701.00 L 508.80 693.30 L 513.50 693.40 L 519.60 694.20 L 527.40 696.10 L 537.10 699.20 L 549.30 703.80 L 577.10 715.70 L 588.50 719.90 L 598.70 723.00 L 607.80 725.20 L 615.90 726.50 L 623.10 727.00 L 629.60 726.90 L 635.30 726.30 L 640.60 724.60 L 647.00 721.90 L 654.60 718.10 L 663.60 712.80 L 674.10 705.80 L 686.40 696.90 L 718.00 672.50 L 732.30 662.20 L 744.10 654.40 L 753.80 648.70 L 761.50 644.80 L 767.80 642.30 L 774.10 628.90 L 779.70 615.50 L 784.70 601.90 L 788.90 588.20 L 792.40 574.30 L 795.20 560.30 Z" fill="#b7b7b7" fill-rule="nonzero" group-id="8,20,32" node-id="137" stroke="none" target-height="168.20001" target-width="559.4" target-x="235.8" target-y="558.8"></path></g></g></g><g node-id="191"><g node-id="203"><g node-id="215"><path d="M 799.20 511.80 L 799.00 500.00 L 798.10 487.60 L 796.60 474.70 L 794.50 461.10 L 791.80 446.80 L 765.70 452.60 L 750.80 456.30 L 741.50 459.50 L 733.60 463.00 L 727.00 466.70 L 721.40 470.60 L 716.80 474.80 L 674.30 529.80 L 667.20 538.10 L 660.20 545.50 L 653.30 551.90 L 646.40 557.50 L 639.60 562.20 L 632.80 566.30 L 626.00 569.60 L 619.30 572.20 L 613.60 573.70 L 607.50 574.60 L 601.10 574.80 L 594.30 574.20 L 586.90 572.90 L 579.00 570.80 L 570.50 567.70 L 561.20 563.50 L 533.00 548.20 L 518.80 541.20 L 507.80 536.50 L 499.60 533.60 L 493.60 532.20 L 489.30 531.80 L 484.40 532.10 L 478.00 533.30 L 469.70 535.50 L 459.20 539.10 L 446.00 544.30 L 429.70 551.60 L 399.10 566.10 L 388.90 570.00 L 379.00 572.90 L 369.60 575.10 L 360.40 576.40 L 351.50 577.00 L 342.90 576.90 L 334.50 576.00 L 326.30 574.50 L 318.30 572.20 L 313.40 569.80 L 308.50 566.60 L 303.60 562.70 L 298.50 557.80 L 293.30 552.00 L 288.00 545.10 L 282.50 537.00 L 277.00 527.60 L 266.20 507.10 L 261.20 499.10 L 256.30 492.50 L 251.40 487.20 L 246.60 482.90 L 241.80 479.60 L 237.00 477.20 L 232.20 475.60 L 227.30 474.80 L 225.80 488.10 L 225.00 500.40 L 224.80 511.80 L 225.10 524.70 L 226.00 537.60 L 227.50 550.50 L 229.60 563.40 L 232.40 576.30 L 235.80 589.30 L 239.20 586.90 L 242.90 585.10 L 246.70 583.90 L 250.80 583.30 L 255.30 583.30 L 260.00 583.90 L 265.30 585.30 L 271.70 587.40 L 277.20 589.90 L 281.80 592.90 L 285.80 596.30 L 291.80 605.30 L 298.10 613.30 L 304.60 620.50 L 311.40 626.80 L 318.40 632.40 L 325.70 637.20 L 333.30 641.30 L 341.20 644.70 L 349.50 647.40 L 358.20 649.40 L 367.30 650.70 L 376.90 651.30 L 387.10 651.20 L 397.80 650.30 L 411.30 648.20 L 431.40 644.60 L 459.80 638.80 L 473.00 636.60 L 485.00 635.30 L 495.70 634.70 L 505.40 634.80 L 514.00 635.50 L 521.80 636.80 L 524.40 637.90 L 531.00 641.70 L 544.30 650.20 L 575.40 670.80 L 582.20 674.40 L 588.90 677.10 L 595.50 679.00 L 601.90 680.10 L 608.30 680.50 L 614.60 680.10 L 620.90 679.10 L 627.30 677.30 L 633.10 674.60 L 638.80 671.30 L 644.30 667.50 L 649.70 663.00 L 654.90 657.80 L 660.00 651.90 L 665.00 645.30 L 669.80 637.80 L 682.30 613.00 L 692.40 594.20 L 700.30 580.30 L 704.70 575.30 L 709.50 571.00 L 714.50 567.40 L 719.90 564.40 L 725.60 562.10 L 731.70 560.30 L 738.20 559.20 L 745.30 558.80 L 763.50 559.10 L 795.20 560.30 L 797.00 547.70 L 798.30 535.40 L 799.00 523.40 L 799.20 511.80 Z" fill="#c1c1c1" fill-rule="nonzero" group-id="9,21,33" node-id="148" stroke="none" target-height="233.70001" target-width="574.4" target-x="224.8" target-y="446.8"></path></g></g></g><g node-id="192"><g node-id="204"><g node-id="216"><path d="M 765.30 377.30 L 759.60 382.10 L 753.70 386.40 L 747.60 390.30 L 741.30 393.80 L 738.00 394.60 L 733.20 395.10 L 726.60 394.90 L 717.50 393.90 L 705.40 391.80 L 689.70 388.20 L 661.40 380.70 L 653.90 379.50 L 647.30 379.00 L 641.30 379.20 L 636.00 380.10 L 631.20 381.50 L 626.80 383.40 L 622.90 385.90 L 619.40 388.90 L 616.20 392.50 L 613.30 396.80 L 610.80 401.80 L 606.20 412.60 L 601.20 422.70 L 595.70 432.00 L 589.70 440.70 L 583.20 448.70 L 576.30 456.10 L 568.80 463.00 L 560.80 469.20 L 552.30 475.00 L 543.20 480.10 L 533.50 484.70 L 523.10 488.80 L 512.10 492.30 L 500.20 495.30 L 488.20 497.40 L 476.40 498.80 L 464.90 499.40 L 453.70 499.40 L 442.60 498.60 L 431.80 497.10 L 421.10 494.90 L 410.50 492.10 L 400.10 488.50 L 389.80 484.20 L 379.50 479.20 L 369.40 473.40 L 359.30 466.80 L 335.90 448.40 L 320.00 436.40 L 309.60 429.20 L 303.30 425.30 L 294.70 420.80 L 286.60 417.50 L 279.10 415.10 L 272.00 413.60 L 265.30 413.00 L 258.90 413.10 L 252.80 413.90 L 246.90 415.50 L 241.30 417.80 L 236.90 430.80 L 233.10 444.60 L 229.90 459.20 L 227.30 474.80 L 232.20 475.60 L 237.00 477.20 L 241.80 479.60 L 246.60 482.90 L 251.40 487.20 L 256.30 492.50 L 261.20 499.10 L 266.20 507.10 L 277.00 527.60 L 282.50 537.00 L 288.00 545.10 L 293.30 552.00 L 298.50 557.80 L 303.60 562.70 L 308.50 566.60 L 313.40 569.80 L 318.30 572.20 L 326.30 574.50 L 334.50 576.00 L 342.90 576.90 L 351.50 577.00 L 360.40 576.40 L 369.60 575.10 L 379.00 572.90 L 388.90 570.00 L 399.10 566.10 L 429.70 551.60 L 446.00 544.30 L 459.20 539.10 L 469.70 535.50 L 478.00 533.30 L 484.40 532.10 L 489.30 531.80 L 493.60 532.20 L 499.60 533.60 L 507.80 536.50 L 518.80 541.20 L 533.00 548.20 L 561.20 563.50 L 570.50 567.70 L 579.00 570.80 L 586.90 572.90 L 594.30 574.20 L 601.10 574.80 L 607.50 574.60 L 613.60 573.70 L 619.30 572.20 L 626.00 569.60 L 632.80 566.30 L 639.60 562.20 L 646.40 557.50 L 653.30 551.90 L 660.20 545.50 L 667.20 538.10 L 674.30 529.80 L 716.80 474.80 L 721.40 470.60 L 727.00 466.70 L 733.60 463.00 L 741.50 459.50 L 750.80 456.30 L 765.70 452.60 L 791.80 446.80 L 787.80 432.00 L 783.10 417.70 L 777.80 403.90 L 771.90 390.40 L 765.30 377.30 Z" fill="#cccccc" fill-rule="nonzero" group-id="10,22,34" node-id="159" stroke="none" target-height="199.70001" target-width="564.5" target-x="227.3" target-y="377.3"></path></g></g></g><g node-id="193"><g node-id="205"><g node-id="217"><path d="M 592.80 237.30 L 596.30 250.30 L 599.10 263.50 L 601.40 276.80 L 603.00 290.30 L 603.90 303.90 L 604.30 317.70 L 603.90 333.70 L 602.70 349.20 L 600.80 364.30 L 598.20 379.00 L 594.80 393.30 L 590.70 407.30 L 585.90 420.90 L 580.40 434.20 L 574.20 447.30 L 567.10 460.00 L 559.40 472.50 L 550.80 484.80 L 541.50 496.80 L 531.30 508.60 L 520.30 520.30 L 508.70 531.20 L 496.90 541.30 L 484.80 550.60 L 472.60 559.10 L 460.00 566.80 L 447.30 573.80 L 434.20 580.00 L 420.80 585.50 L 407.20 590.30 L 393.20 594.30 L 378.80 597.70 L 364.00 600.30 L 348.90 602.20 L 333.30 603.40 L 317.30 603.80 L 303.40 603.40 L 289.80 602.50 L 276.30 600.90 L 263.00 598.60 L 249.80 595.80 L 236.70 592.30 L 241.10 606.10 L 246.00 619.50 L 251.50 632.40 L 257.50 644.90 L 264.20 657.00 L 271.40 668.70 L 279.10 680.00 L 287.50 690.90 L 296.50 701.50 L 306.10 711.70 L 316.30 721.50 L 327.20 731.10 L 338.80 740.30 L 350.80 748.90 L 363.00 756.80 L 375.30 764.00 L 387.90 770.50 L 400.70 776.30 L 413.70 781.40 L 426.90 785.80 L 440.40 789.60 L 454.10 792.70 L 468.20 795.10 L 482.50 796.80 L 497.20 797.90 L 512.30 798.30 L 528.30 797.90 L 543.90 796.70 L 559.00 794.80 L 573.80 792.20 L 588.20 788.80 L 602.20 784.80 L 615.80 780.00 L 629.20 774.50 L 642.30 768.30 L 655.00 761.30 L 667.60 753.60 L 679.80 745.10 L 691.90 735.80 L 703.70 725.70 L 715.30 714.80 L 726.30 703.10 L 736.50 691.30 L 745.80 679.30 L 754.40 667.00 L 762.10 654.50 L 769.20 641.80 L 775.40 628.70 L 780.90 615.40 L 785.70 601.80 L 789.80 587.80 L 793.20 573.50 L 795.80 558.80 L 797.70 543.70 L 798.90 528.20 L 799.30 512.30 L 798.90 497.30 L 797.80 482.70 L 796.10 468.50 L 793.70 454.50 L 790.60 440.80 L 786.80 427.30 L 782.30 414.10 L 777.20 401.00 L 771.30 388.20 L 764.80 375.60 L 757.50 363.20 L 749.50 350.90 L 740.80 338.80 L 731.60 327.40 L 722.10 316.60 L 712.20 306.50 L 702.00 297.00 L 691.50 288.10 L 680.60 279.80 L 669.30 272.10 L 657.60 264.90 L 645.50 258.30 L 633.00 252.20 L 620.10 246.60 L 606.60 241.70 L 592.80 237.30 Z" fill="#000000" fill-opacity="0.2" fill-rule="nonzero" group-id="11,23,35" node-id="170" stroke="none" target-height="561" target-width="562.6" target-x="236.7" target-y="237.3"></path></g></g></g><path d="M 427.30 300.30 L 425.00 297.80 L 422.30 295.90 L 419.10 294.50 L 415.40 293.70 L 411.00 293.40 L 405.80 293.80 L 400.00 294.70 L 394.10 296.40 L 388.20 298.90 L 382.10 302.40 L 375.80 306.80 L 369.80 311.70 L 364.80 316.70 L 360.70 321.60 L 357.40 326.70 L 354.80 331.80 L 353.10 336.70 L 352.40 341.10 L 352.30 344.90 L 352.80 348.30 L 354.00 351.40 L 355.80 354.30 L 358.00 356.70 L 360.70 358.60 L 363.90 360.00 L 367.60 360.80 L 372.00 361.10 L 377.30 360.80 L 383.00 359.80 L 388.90 358.10 L 394.80 355.60 L 400.90 352.10 L 407.30 347.80 L 413.00 342.80 L 417.80 337.90 L 421.80 332.90 L 425.10 327.90 L 427.80 322.80 L 429.50 317.80 L 430.40 313.40 L 430.60 309.60 L 430.10 306.20 L 429.00 303.10 L 427.30 300.30 Z" fill="#ffffff" fill-opacity="0.69803923" fill-rule="nonzero" group-id="12,24,36" node-id="181" stroke="none" target-height="67.70001" target-width="78.30002" target-x="352.3" target-y="293.4"></path></svg>