<?xml version="1.0" encoding="UTF-8"?>
<svg width="500" height="500" viewBox="0 0 500 500" fill="none" xmlns="http://www.w3.org/2000/svg">
  <!-- 外层八卦装饰 -->
  <g stroke="#72AEC5" stroke-width="2">
    <polygon points="250,20 280,50 250,80 220,50" fill="none" />
    <polygon points="250,420 280,450 250,480 220,450" fill="none" />
    <polygon points="80,250 50,280 20,250 50,220" fill="none" />
    <polygon points="420,250 450,280 480,250 450,220" fill="none" />
    
    <polygon points="335,85 365,115 335,145 305,115" fill="none" />
    <polygon points="335,355 365,385 335,415 305,385" fill="none" />
    <polygon points="85,335 115,365 85,395 55,365" fill="none" />
    <polygon points="415,165 445,195 415,225 385,195" fill="none" />
  </g>
  
  <!-- 中间八卦图 -->
  <circle cx="250" cy="250" r="150" fill="white" stroke="#000" stroke-width="2" />
  <path d="M250,100 a75,75 0 0,1 0,150 a75,75 0 0,0 0,150 a150,150 0 0,0 0,-300z" fill="black" />
  <circle cx="250" cy="175" r="15" fill="white" />
  <circle cx="250" cy="325" r="15" fill="black" />
  
  <!-- 八卦卦象 -->
  <g stroke="#72AEC5" stroke-width="4">
    <!-- 乾 -->
    <line x1="175" y1="130" x2="225" y2="130" />
    <line x1="175" y1="145" x2="225" y2="145" />
    <line x1="175" y1="160" x2="225" y2="160" />
    
    <!-- 坤 -->
    <line x1="175" y1="340" x2="190" y2="340" />
    <line x1="200" y1="340" x2="225" y2="340" />
    <line x1="175" y1="355" x2="190" y2="355" />
    <line x1="200" y1="355" x2="225" y2="355" />
    <line x1="175" y1="370" x2="190" y2="370" />
    <line x1="200" y1="370" x2="225" y2="370" />
    
    <!-- 震 -->
    <line x1="130" y1="175" x2="145" y2="175" />
    <line x1="155" y1="175" x2="170" y2="175" />
    <line x1="130" y1="190" x2="170" y2="190" />
    <line x1="130" y1="205" x2="170" y2="205" />
    
    <!-- 巽 -->
    <line x1="330" y1="175" x2="370" y2="175" />
    <line x1="330" y1="190" x2="345" y2="190" />
    <line x1="355" y1="190" x2="370" y2="190" />
    <line x1="330" y1="205" x2="370" y2="205" />
    
    <!-- 坎 -->
    <line x1="175" y1="250" x2="225" y2="250" />
    <line x1="175" y1="265" x2="190" y2="265" />
    <line x1="200" y1="265" x2="225" y2="265" />
    <line x1="175" y1="280" x2="225" y2="280" />
    
    <!-- 离 -->
    <line x1="275" y1="250" x2="325" y2="250" />
    <line x1="275" y1="265" x2="290" y2="265" />
    <line x1="300" y1="265" x2="325" y2="265" />
    <line x1="275" y1="280" x2="325" y2="280" />
    
    <!-- 艮 -->
    <line x1="130" y1="295" x2="170" y2="295" />
    <line x1="130" y1="310" x2="170" y2="310" />
    <line x1="130" y1="325" x2="145" y2="325" />
    <line x1="155" y1="325" x2="170" y2="325" />
    
    <!-- 兑 -->
    <line x1="330" y1="295" x2="370" y2="295" />
    <line x1="330" y1="310" x2="370" y2="310" />
    <line x1="330" y1="325" x2="345" y2="325" />
    <line x1="355" y1="325" x2="370" y2="325" />
  </g>
</svg> 